<svg width="64" height="64" viewBox="0 0 64 64" fill="none" xmlns="http://www.w3.org/2000/svg">
<rect width="64" height="64" rx="32" fill="#484848"/>
<mask id="mask0_611_875" style="mask-type:alpha" maskUnits="userSpaceOnUse" x="16" y="16" width="32" height="32">
<rect x="16" y="16" width="32" height="32" fill="#D9D9D9"/>
</mask>
<g mask="url(#mask0_611_875)">
<path d="M41.3333 31.966C41.3333 30.1216 40.8444 28.4382 39.8667 26.916C38.8889 25.3938 37.5778 24.2549 35.9333 23.4993C35.6 23.3438 35.3556 23.1049 35.2 22.7827C35.0444 22.4605 35.0222 22.1327 35.1333 21.7993C35.2667 21.4438 35.5056 21.1882 35.85 21.0327C36.1944 20.8771 36.5444 20.8771 36.9 21.0327C39.0556 21.9882 40.7778 23.4493 42.0667 25.416C43.3556 27.3827 44 29.566 44 31.966C44 34.366 43.3556 36.5493 42.0667 38.516C40.7778 40.4827 39.0556 41.9438 36.9 42.8994C36.5444 43.0549 36.1944 43.0549 35.85 42.8994C35.5056 42.7438 35.2667 42.4882 35.1333 42.1327C35.0222 41.7993 35.0444 41.4716 35.2 41.1493C35.3556 40.8271 35.6 40.5882 35.9333 40.4327C37.5778 39.6771 38.8889 38.5382 39.8667 37.016C40.8444 35.4938 41.3333 33.8105 41.3333 31.966ZM25.3333 35.9993H21.3333C20.9556 35.9993 20.6389 35.8716 20.3833 35.616C20.1278 35.3605 20 35.0438 20 34.666V29.3327C20 28.9549 20.1278 28.6382 20.3833 28.3827C20.6389 28.1271 20.9556 27.9993 21.3333 27.9993H25.3333L29.7333 23.5993C30.1556 23.1771 30.6389 23.0827 31.1833 23.316C31.7278 23.5493 32 23.966 32 24.566V39.4327C32 40.0327 31.7278 40.4493 31.1833 40.6827C30.6389 40.916 30.1556 40.8216 29.7333 40.3993L25.3333 35.9993ZM38 31.9993C38 32.9327 37.7889 33.816 37.3667 34.6493C36.9444 35.4827 36.3889 36.166 35.7 36.6994C35.4778 36.8327 35.25 36.8382 35.0167 36.716C34.7833 36.5938 34.6667 36.3993 34.6667 36.1327V27.7993C34.6667 27.5327 34.7833 27.3382 35.0167 27.216C35.25 27.0938 35.4778 27.0993 35.7 27.2327C36.3889 27.7882 36.9444 28.4882 37.3667 29.3327C37.7889 30.1771 38 31.066 38 31.9993Z" fill="#1E1E1E"/>
</g>
</svg>
