<svg width="500" height="500" viewBox="0 0 500 500" fill="none" xmlns="http://www.w3.org/2000/svg">
<g clip-path="url(#clip0_1134_5709)">
<rect width="500" height="500" rx="250" fill="white"/>
<path d="M224.046 227.281L252.778 174.04L281.51 227.281L252.778 258.831L224.046 227.281Z" fill="#EBC284"/>
<path fill-rule="evenodd" clip-rule="evenodd" d="M250 500C388.072 500 500 388.072 500 250C500 111.928 388.072 0 250 0C111.928 0 0 111.928 0 250C0 388.072 111.928 500 250 500ZM131.69 264.747C125.921 325.278 162.476 349.538 166.58 349.538V402.778C145.373 392.918 102.548 367.679 100.906 345.593C99.2645 323.509 100.223 243.056 100.906 205.591L121.429 187.844C129.639 199.674 149.752 222.548 164.528 219.394L165.054 219.281C183.729 215.298 221.993 207.138 221.993 158.265L209.679 138.547L252.778 83.3333L295.876 138.547L283.562 158.265C283.562 207.138 321.826 215.298 340.501 219.281L341.027 219.394C355.803 222.548 375.917 199.674 384.126 187.844L404.649 205.591C405.333 243.056 406.291 323.509 404.649 345.593C403.007 367.679 360.183 392.918 338.976 402.778V349.538C343.08 349.538 379.636 325.278 373.865 264.747C374.132 276.355 252.778 292.352 252.778 292.352C252.778 292.352 131.424 276.355 131.69 264.747ZM250.725 335.733C243.201 338.363 228.15 344.016 228.15 345.593C228.15 347.17 243.201 359.396 250.725 365.312C258.251 359.396 273.301 347.17 273.301 345.593C273.301 344.016 258.251 338.363 250.725 335.733ZM166.605 299.023C166.588 299.427 166.58 299.832 166.58 300.24C166.58 317.665 181.283 331.79 199.418 331.79C212.466 331.79 223.738 324.477 229.033 313.885L166.605 299.023ZM335.753 300.24C335.753 299.832 335.745 299.427 335.73 299.023L273.301 313.885C278.597 324.477 289.868 331.789 302.916 331.789C321.052 331.789 335.753 317.665 335.753 300.24Z" fill="#EBC284"/>
</g>
<defs>
<clipPath id="clip0_1134_5709">
<rect width="500" height="500" rx="250" fill="white"/>
</clipPath>
</defs>
</svg>
