<svg width="85" height="85" viewBox="0 0 85 85" fill="none" xmlns="http://www.w3.org/2000/svg">
<mask id="mask0_397_465" style="mask-type:alpha" maskUnits="userSpaceOnUse" x="0" y="0" width="85" height="85">
<rect x="0.5" y="0.59375" width="84" height="84" fill="#D9D9D9"/>
</mask>
<g mask="url(#mask0_397_465)">
<path d="M67 42.5063C67 37.6646 65.7167 33.2458 63.15 29.25C60.5833 25.2542 57.1417 22.2646 52.825 20.2812C51.95 19.8729 51.3083 19.2458 50.9 18.4C50.4917 17.5542 50.4333 16.6938 50.725 15.8188C51.075 14.8854 51.7021 14.2146 52.6063 13.8063C53.5104 13.3979 54.4292 13.3979 55.3625 13.8063C61.0208 16.3146 65.5417 20.15 68.925 25.3125C72.3083 30.475 74 36.2063 74 42.5063C74 48.8063 72.3083 54.5375 68.925 59.7C65.5417 64.8625 61.0208 68.6979 55.3625 71.2063C54.4292 71.6146 53.5104 71.6146 52.6063 71.2063C51.7021 70.7979 51.075 70.1271 50.725 69.1938C50.4333 68.3188 50.4917 67.4583 50.9 66.6125C51.3083 65.7667 51.95 65.1396 52.825 64.7313C57.1417 62.7479 60.5833 59.7583 63.15 55.7625C65.7167 51.7667 67 47.3479 67 42.5063ZM25 53.0938H14.5C13.5083 53.0938 12.6771 52.7583 12.0063 52.0875C11.3354 51.4167 11 50.5854 11 49.5938V35.5938C11 34.6021 11.3354 33.7708 12.0063 33.1C12.6771 32.4292 13.5083 32.0938 14.5 32.0938H25L36.55 20.5438C37.6583 19.4354 38.9271 19.1875 40.3562 19.8C41.7854 20.4125 42.5 21.5062 42.5 23.0813V62.1063C42.5 63.6812 41.7854 64.775 40.3562 65.3875C38.9271 66 37.6583 65.7521 36.55 64.6437L25 53.0938ZM58.25 42.5938C58.25 45.0438 57.6958 47.3625 56.5875 49.55C55.4792 51.7375 54.0208 53.5313 52.2125 54.9313C51.6292 55.2813 51.0312 55.2958 50.4188 54.975C49.8062 54.6542 49.5 54.1438 49.5 53.4438V31.5688C49.5 30.8687 49.8062 30.3583 50.4188 30.0375C51.0312 29.7167 51.6292 29.7313 52.2125 30.0813C54.0208 31.5396 55.4792 33.3771 56.5875 35.5938C57.6958 37.8104 58.25 40.1437 58.25 42.5938ZM35.5 31.5688L27.975 39.0938H18V46.0938H27.975L35.5 53.6188V31.5688Z" fill="white"/>
</g>
</svg>
