<svg width="84" height="84" viewBox="0 0 84 84" fill="none" xmlns="http://www.w3.org/2000/svg">
<mask id="mask0_1787_8449" style="mask-type:alpha" maskUnits="userSpaceOnUse" x="0" y="0" width="84" height="84">
<rect width="84" height="84" fill="#D9D9D9"/>
</mask>
<g mask="url(#mask0_1787_8449)">
<path d="M42 61.25C46.375 61.25 50.0938 59.7188 53.1562 56.6562C56.2188 53.5938 57.75 49.875 57.75 45.5C57.75 41.125 56.2188 37.4062 53.1562 34.3438C50.0938 31.2812 46.375 29.75 42 29.75C37.625 29.75 33.9062 31.2812 30.8438 34.3438C27.7812 37.4062 26.25 41.125 26.25 45.5C26.25 49.875 27.7812 53.5938 30.8438 56.6562C33.9062 59.7188 37.625 61.25 42 61.25ZM42 54.25C39.55 54.25 37.4792 53.4042 35.7875 51.7125C34.0958 50.0208 33.25 47.95 33.25 45.5C33.25 43.05 34.0958 40.9792 35.7875 39.2875C37.4792 37.5958 39.55 36.75 42 36.75C44.45 36.75 46.5208 37.5958 48.2125 39.2875C49.9042 40.9792 50.75 43.05 50.75 45.5C50.75 47.95 49.9042 50.0208 48.2125 51.7125C46.5208 53.4042 44.45 54.25 42 54.25ZM14 73.5C12.075 73.5 10.4271 72.8146 9.05625 71.4438C7.68542 70.0729 7 68.425 7 66.5V24.5C7 22.575 7.68542 20.9271 9.05625 19.5563C10.4271 18.1854 12.075 17.5 14 17.5H25.025L29.4 12.775C30.0417 12.075 30.8146 11.5208 31.7188 11.1125C32.6229 10.7042 33.5708 10.5 34.5625 10.5H49.4375C50.4292 10.5 51.3771 10.7042 52.2812 11.1125C53.1854 11.5208 53.9583 12.075 54.6 12.775L58.975 17.5H70C71.925 17.5 73.5729 18.1854 74.9437 19.5563C76.3146 20.9271 77 22.575 77 24.5V66.5C77 68.425 76.3146 70.0729 74.9437 71.4438C73.5729 72.8146 71.925 73.5 70 73.5H14ZM14 66.5H70V24.5H55.825L49.4375 17.5H34.5625L28.175 24.5H14V66.5Z" fill="white"/>
</g>
</svg>
