<svg width="660" height="67" viewBox="0 0 660 67" fill="none" xmlns="http://www.w3.org/2000/svg">
<path d="M0.88 35.344V4.888H16.936V35.344C16.936 47.224 18.736 52.408 27.376 52.408C36.016 52.408 37.816 47.224 37.816 35.344V4.888H53.872V35.344C53.872 54.712 48.112 66.52 27.376 66.52C6.64 66.52 0.88 54.712 0.88 35.344ZM81.4773 65.08H65.4213V4.888H83.6373L103.365 41.896V4.888H119.421V65.08H101.205L81.4773 29.44V65.08ZM165.291 50.968V65.08H130.947V50.968H140.091V19H130.947V4.888H165.291V19H156.147V50.968H165.291ZM217.825 65.08H194.065L175.345 4.888H192.121L205.945 49.672L219.769 4.888H236.545L217.825 65.08ZM290.664 28.288V41.68H262.656V50.968H293.472V65.08H246.6V4.888H293.472V19H262.656V28.288H290.664ZM321.08 65.08H305.024V4.888H330.584C349.664 4.888 358.304 11.296 358.304 25.984C358.304 35.128 354.92 41.104 347.792 44.272L359.744 65.08H340.592L330.224 47.08H321.08V65.08ZM321.08 32.968H330.584C337.928 32.968 342.248 32.104 342.248 25.984C342.248 19.864 337.928 19 330.584 19H321.08V32.968ZM394.273 42.04C374.905 42.04 367.633 34.912 367.633 22.888C367.633 10.864 374.905 3.448 393.553 3.448C412.201 3.448 419.473 10.864 419.473 22.888H403.273C403.273 18.496 400.897 17.2 393.553 17.2C385.561 17.2 383.833 19.144 383.833 22.528C383.833 26.416 386.209 27.928 394.273 27.928C413.641 27.928 420.913 35.056 420.913 47.08C420.913 59.104 413.641 66.52 394.273 66.52C374.905 66.52 367.633 59.104 367.633 47.08H383.833C383.833 51.472 386.209 52.768 394.273 52.768C402.985 52.768 404.713 50.824 404.713 47.44C404.713 43.552 402.337 42.04 394.273 42.04ZM475.077 28.288V41.68H447.069V50.968H477.885V65.08H431.013V4.888H477.885V19H447.069V28.288H475.077ZM553.536 65.8H536.976C538.488 58.024 539.496 51.112 540.144 44.2H516.096V29.8H541.08C541.224 25.696 541.296 21.376 541.296 16.84H515.376V2.44H557.856V15.4C557.856 24.4 557.64 32.536 557.064 40.6C556.416 48.664 555.336 56.8 553.536 65.8ZM578.016 23.68H583.776V39.52H578.016V65.8H561.456V0.279996H578.016V23.68ZM611.856 29.8H657.216V44.2H595.296V1.72H657.216V16.12H611.856V29.8ZM593.136 51.4H659.376V65.8H593.136V51.4Z" fill="white" fill-opacity="0.15"/>
<path d="M0.88 4.888V2.888H-1.12V4.888H0.88ZM16.936 4.888H18.936V2.888H16.936V4.888ZM37.816 4.888V2.888H35.816V4.888H37.816ZM53.872 4.888H55.872V2.888H53.872V4.888ZM2.88 35.344V4.888H-1.12V35.344H2.88ZM0.88 6.888H16.936V2.888H0.88V6.888ZM14.936 4.888V35.344H18.936V4.888H14.936ZM14.936 35.344C14.936 41.248 15.3556 46.0085 17.1637 49.2951C18.1126 51.0199 19.4423 52.3457 21.2264 53.2116C22.9719 54.0588 25.0319 54.408 27.376 54.408V50.408C25.4001 50.408 23.9951 50.1092 22.9731 49.6131C21.9897 49.1358 21.2494 48.4231 20.6683 47.3669C19.4164 45.0915 18.936 41.32 18.936 35.344H14.936ZM27.376 54.408C29.7201 54.408 31.7801 54.0588 33.5256 53.2116C35.3097 52.3457 36.6394 51.0199 37.5883 49.2951C39.3964 46.0085 39.816 41.248 39.816 35.344H35.816C35.816 41.32 35.3356 45.0915 34.0837 47.3669C33.5026 48.4231 32.7623 49.1358 31.7789 49.6131C30.7569 50.1092 29.3519 50.408 27.376 50.408V54.408ZM39.816 35.344V4.888H35.816V35.344H39.816ZM37.816 6.888H53.872V2.888H37.816V6.888ZM51.872 4.888V35.344H55.872V4.888H51.872ZM51.872 35.344C51.872 44.918 50.4293 52.1587 46.8003 56.9946C43.2719 61.6965 37.3591 64.52 27.376 64.52V68.52C38.129 68.52 45.4641 65.4395 49.9997 59.3954C54.4347 53.4853 55.872 45.138 55.872 35.344H51.872ZM27.376 64.52C17.393 64.52 11.4801 61.6965 7.95168 56.9946C4.32275 52.1587 2.88 44.918 2.88 35.344H-1.12C-1.12 45.138 0.317255 53.4853 4.75232 59.3954C9.28794 65.4395 16.6231 68.52 27.376 68.52V64.52ZM81.4772 65.08V67.08H83.4772V65.08H81.4772ZM65.4212 65.08H63.4212V67.08H65.4212V65.08ZM65.4212 4.888V2.888H63.4212V4.888H65.4212ZM83.6373 4.888L85.4021 3.94718L84.8375 2.888H83.6373V4.888ZM103.365 41.896L101.6 42.8368L105.365 41.896H103.365ZM103.365 4.888V2.888H101.365V4.888H103.365ZM119.421 4.888H121.421V2.888H119.421V4.888ZM119.421 65.08V67.08H121.421V65.08H119.421ZM101.205 65.08L99.4554 66.0486L100.026 67.08H101.205V65.08ZM81.4772 29.44L83.2271 28.4714L79.4772 21.6971V29.44H81.4772ZM81.4772 63.08H65.4212V67.08H81.4772V63.08ZM67.4212 65.08V4.888H63.4212V65.08H67.4212ZM65.4212 6.888H83.6373V2.888H65.4212V6.888ZM81.8724 5.82882L101.6 42.8368L105.13 40.9552L85.4021 3.94718L81.8724 5.82882ZM105.365 41.896V4.888H101.365V41.896H105.365ZM103.365 6.888H119.421V2.888H103.365V6.888ZM117.421 4.888V65.08H121.421V4.888H117.421ZM119.421 63.08H101.205V67.08H119.421V63.08ZM102.955 64.1114L83.2271 28.4714L79.7274 30.4086L99.4554 66.0486L102.955 64.1114ZM79.4772 29.44V65.08H83.4772V29.44H79.4772ZM165.291 50.968H167.291V48.968H165.291V50.968ZM165.291 65.08V67.08H167.291V65.08H165.291ZM130.947 65.08H128.947V67.08H130.947V65.08ZM130.947 50.968V48.968H128.947V50.968H130.947ZM140.091 50.968V52.968H142.091V50.968H140.091ZM140.091 19H142.091V17H140.091V19ZM130.947 19H128.947V21H130.947V19ZM130.947 4.888V2.888H128.947V4.888H130.947ZM165.291 4.888H167.291V2.888H165.291V4.888ZM165.291 19V21H167.291V19H165.291ZM156.147 19V17H154.147V19H156.147ZM156.147 50.968H154.147V52.968H156.147V50.968ZM163.291 50.968V65.08H167.291V50.968H163.291ZM165.291 63.08H130.947V67.08H165.291V63.08ZM132.947 65.08V50.968H128.947V65.08H132.947ZM130.947 52.968H140.091V48.968H130.947V52.968ZM142.091 50.968V19H138.091V50.968H142.091ZM140.091 17H130.947V21H140.091V17ZM132.947 19V4.888H128.947V19H132.947ZM130.947 6.888H165.291V2.888H130.947V6.888ZM163.291 4.888V19H167.291V4.888H163.291ZM165.291 17H156.147V21H165.291V17ZM154.147 19V50.968H158.147V19H154.147ZM156.147 52.968H165.291V48.968H156.147V52.968ZM217.825 65.08V67.08H219.297L219.735 65.674L217.825 65.08ZM194.065 65.08L192.155 65.674L192.593 67.08H194.065V65.08ZM175.345 4.888V2.888H172.628L173.435 5.48195L175.345 4.888ZM192.121 4.888L194.032 4.2981L193.597 2.888H192.121V4.888ZM205.945 49.672L204.034 50.2619L205.945 56.4528L207.856 50.2619L205.945 49.672ZM219.769 4.888V2.888H218.293L217.858 4.2981L219.769 4.888ZM236.545 4.888L238.455 5.48195L239.262 2.888H236.545V4.888ZM217.825 63.08H194.065V67.08H217.825V63.08ZM195.975 64.4861L177.255 4.29405L173.435 5.48195L192.155 65.674L195.975 64.4861ZM175.345 6.888H192.121V2.888H175.345V6.888ZM190.21 5.4779L204.034 50.2619L207.856 49.0821L194.032 4.2981L190.21 5.4779ZM207.856 50.2619L221.68 5.4779L217.858 4.2981L204.034 49.0821L207.856 50.2619ZM219.769 6.888H236.545V2.888H219.769V6.888ZM234.635 4.29405L215.915 64.4861L219.735 65.674L238.455 5.48195L234.635 4.29405ZM290.664 28.288H292.664V26.288H290.664V28.288ZM290.664 41.68V43.68H292.664V41.68H290.664ZM262.656 41.68V39.68H260.656V41.68H262.656ZM262.656 50.968H260.656V52.968H262.656V50.968ZM293.472 50.968H295.472V48.968H293.472V50.968ZM293.472 65.08V67.08H295.472V65.08H293.472ZM246.6 65.08H244.6V67.08H246.6V65.08ZM246.6 4.888V2.888H244.6V4.888H246.6ZM293.472 4.888H295.472V2.888H293.472V4.888ZM293.472 19V21H295.472V19H293.472ZM262.656 19V17H260.656V19H262.656ZM262.656 28.288H260.656V30.288H262.656V28.288ZM288.664 28.288V41.68H292.664V28.288H288.664ZM290.664 39.68H262.656V43.68H290.664V39.68ZM260.656 41.68V50.968H264.656V41.68H260.656ZM262.656 52.968H293.472V48.968H262.656V52.968ZM291.472 50.968V65.08H295.472V50.968H291.472ZM293.472 63.08H246.6V67.08H293.472V63.08ZM248.6 65.08V4.888H244.6V65.08H248.6ZM246.6 6.888H293.472V2.888H246.6V6.888ZM291.472 4.888V19H295.472V4.888H291.472ZM293.472 17H262.656V21H293.472V17ZM260.656 19V28.288H264.656V19H260.656ZM262.656 30.288H290.664V26.288H262.656V30.288ZM321.08 65.08V67.08H323.08V65.08H321.08ZM305.024 65.08H303.024V67.08H305.024V65.08ZM305.024 4.888V2.888H303.024V4.888H305.024ZM347.792 44.272L346.979 42.4444L344.953 43.3451L346.057 45.2682L347.792 44.272ZM359.744 65.08V67.08H363.199L361.478 64.0838L359.744 65.08ZM340.592 65.08L338.859 66.0782L339.436 67.08H340.592V65.08ZM330.224 47.08L331.957 46.0818L331.38 45.08H330.224V47.08ZM321.08 47.08V45.08H319.08V47.08H321.08ZM321.08 32.968H319.08V34.968H321.08V32.968ZM321.08 19V17H319.08V19H321.08ZM321.08 63.08H305.024V67.08H321.08V63.08ZM307.024 65.08V4.888H303.024V65.08H307.024ZM305.024 6.888H330.584V2.888H305.024V6.888ZM330.584 6.888C339.977 6.888 346.37 8.48043 350.392 11.5231C354.288 14.4697 356.304 19.0514 356.304 25.984H360.304C360.304 18.2286 358 12.2622 352.805 8.33294C347.738 4.49957 340.271 2.888 330.584 2.888V6.888ZM356.304 25.984C356.304 30.3186 355.501 33.7285 353.985 36.3751C352.484 38.9959 350.203 41.0117 346.979 42.4444L348.604 46.0996C352.509 44.3643 355.483 41.8081 357.456 38.3629C359.415 34.9435 360.304 30.7934 360.304 25.984H356.304ZM346.057 45.2682L358.009 66.0762L361.478 64.0838L349.526 43.2758L346.057 45.2682ZM359.744 63.08H340.592V67.08H359.744V63.08ZM342.325 64.0818L331.957 46.0818L328.491 48.0782L338.859 66.0782L342.325 64.0818ZM330.224 45.08H321.08V49.08H330.224V45.08ZM319.08 47.08V65.08H323.08V47.08H319.08ZM321.08 34.968H330.584V30.968H321.08V34.968ZM330.584 34.968C334.206 34.968 337.578 34.7804 340.051 33.5663C341.364 32.9216 342.464 31.9732 343.209 30.6236C343.939 29.301 344.248 27.7394 344.248 25.984H340.248C340.248 27.2886 340.016 28.13 339.707 28.6906C339.412 29.2242 338.973 29.6394 338.288 29.9757C336.765 30.7236 334.306 30.968 330.584 30.968V34.968ZM344.248 25.984C344.248 24.2286 343.939 22.667 343.209 21.3444C342.464 19.9947 341.364 19.0464 340.051 18.4017C337.578 17.1876 334.206 17 330.584 17V21C334.306 21 336.765 21.2444 338.288 21.9923C338.973 22.3286 339.412 22.7437 339.707 23.2774C340.016 23.838 340.248 24.6794 340.248 25.984H344.248ZM330.584 17H321.08V21H330.584V17ZM319.08 19V32.968H323.08V19H319.08ZM419.473 22.888V24.888H421.473V22.888H419.473ZM403.273 22.888H401.273V24.888H403.273V22.888ZM367.633 47.08V45.08H365.633V47.08H367.633ZM383.833 47.08H385.833V45.08H383.833V47.08ZM394.273 40.04C384.769 40.04 378.64 38.2792 374.915 35.3921C371.298 32.5891 369.633 28.4721 369.633 22.888H365.633C365.633 29.3279 367.604 34.7869 372.465 38.5539C377.217 42.2368 384.408 44.04 394.273 44.04V40.04ZM369.633 22.888C369.633 17.2979 371.303 13.0898 374.858 10.2138C378.497 7.26953 384.439 5.448 393.553 5.448V1.448C384.019 1.448 377.001 3.33447 372.342 7.10419C367.598 10.9421 365.633 16.4541 365.633 22.888H369.633ZM393.553 5.448C402.667 5.448 408.609 7.26953 412.248 10.2138C415.802 13.0898 417.473 17.2979 417.473 22.888H421.473C421.473 16.4541 419.507 10.9422 414.764 7.10419C410.105 3.33447 403.087 1.448 393.553 1.448V5.448ZM419.473 20.888H403.273V24.888H419.473V20.888ZM405.273 22.888C405.273 21.6286 405.106 20.4095 404.606 19.3156C404.087 18.1777 403.263 17.2979 402.167 16.665C400.14 15.4948 397.205 15.2 393.553 15.2V19.2C397.245 19.2 399.169 19.5532 400.167 20.129C400.583 20.3691 400.812 20.6368 400.967 20.9771C401.143 21.3615 401.273 21.9514 401.273 22.888H405.273ZM393.553 15.2C389.51 15.2 386.572 15.669 384.623 16.9068C383.585 17.5665 382.847 18.4305 382.394 19.4687C381.958 20.4699 381.833 21.5274 381.833 22.528H385.833C385.833 21.8366 385.924 21.3821 386.061 21.067C386.182 20.789 386.376 20.5325 386.768 20.2832C387.682 19.7029 389.604 19.2 393.553 19.2V15.2ZM381.833 22.528C381.833 23.69 382.008 24.8542 382.546 25.9157C383.1 27.0104 383.963 27.8443 385.079 28.4463C387.166 29.5715 390.235 29.928 394.273 29.928V25.928C390.247 25.928 388.096 25.5285 386.978 24.9257C386.492 24.6637 386.257 24.3906 386.114 24.1083C385.954 23.7928 385.833 23.31 385.833 22.528H381.833ZM394.273 29.928C403.776 29.928 409.905 31.6888 413.631 34.5759C417.248 37.3789 418.913 41.4959 418.913 47.08H422.913C422.913 40.6401 420.942 35.1811 416.081 31.4141C411.328 27.7312 404.137 25.928 394.273 25.928V29.928ZM418.913 47.08C418.913 52.667 417.245 56.8656 413.614 59.7411C409.887 62.6927 403.762 64.52 394.273 64.52V68.52C404.152 68.52 411.347 66.6393 416.097 62.8769C420.945 59.0384 422.913 53.517 422.913 47.08H418.913ZM394.273 64.52C384.784 64.52 378.659 62.6927 374.931 59.7411C371.301 56.8656 369.633 52.667 369.633 47.08H365.633C365.633 53.517 367.601 59.0384 372.448 62.8769C377.199 66.6393 384.394 68.52 394.273 68.52V64.52ZM367.633 49.08H383.833V45.08H367.633V49.08ZM381.833 47.08C381.833 48.3373 381.999 49.5688 382.521 50.6751C383.066 51.829 383.93 52.7049 385.072 53.3272C387.176 54.4737 390.275 54.768 394.273 54.768V50.768C390.207 50.768 388.086 50.4143 386.986 49.8148C386.526 49.5641 386.292 49.2924 386.139 48.9682C385.963 48.5962 385.833 48.0187 385.833 47.08H381.833ZM394.273 54.768C398.659 54.768 401.758 54.3014 403.786 53.0898C404.871 52.4412 405.65 51.5807 406.128 50.5254C406.588 49.5101 406.713 48.439 406.713 47.44H402.713C402.713 48.133 402.621 48.5739 402.485 48.8749C402.367 49.1358 402.17 49.3958 401.734 49.6562C400.719 50.2626 398.599 50.768 394.273 50.768V54.768ZM406.713 47.44C406.713 46.278 406.537 45.1138 406 44.0523C405.445 42.9576 404.582 42.1237 403.466 41.5217C401.38 40.3965 398.311 40.04 394.273 40.04V44.04C398.299 44.04 400.45 44.4395 401.567 45.0423C402.053 45.3043 402.288 45.5774 402.431 45.8597C402.591 46.1752 402.713 46.658 402.713 47.44H406.713ZM475.077 28.288H477.077V26.288H475.077V28.288ZM475.077 41.68V43.68H477.077V41.68H475.077ZM447.069 41.68V39.68H445.069V41.68H447.069ZM447.069 50.968H445.069V52.968H447.069V50.968ZM477.885 50.968H479.885V48.968H477.885V50.968ZM477.885 65.08V67.08H479.885V65.08H477.885ZM431.013 65.08H429.013V67.08H431.013V65.08ZM431.013 4.888V2.888H429.013V4.888H431.013ZM477.885 4.888H479.885V2.888H477.885V4.888ZM477.885 19V21H479.885V19H477.885ZM447.069 19V17H445.069V19H447.069ZM447.069 28.288H445.069V30.288H447.069V28.288ZM473.077 28.288V41.68H477.077V28.288H473.077ZM475.077 39.68H447.069V43.68H475.077V39.68ZM445.069 41.68V50.968H449.069V41.68H445.069ZM447.069 52.968H477.885V48.968H447.069V52.968ZM475.885 50.968V65.08H479.885V50.968H475.885ZM477.885 63.08H431.013V67.08H477.885V63.08ZM433.013 65.08V4.888H429.013V65.08H433.013ZM431.013 6.888H477.885V2.888H431.013V6.888ZM475.885 4.888V19H479.885V4.888H475.885ZM477.885 17H447.069V21H477.885V17ZM445.069 19V28.288H449.069V19H445.069ZM447.069 30.288H475.077V26.288H447.069V30.288ZM553.536 65.8V67.8H555.176L555.497 66.1922L553.536 65.8ZM536.976 65.8L535.013 65.4183L534.55 67.8H536.976V65.8ZM540.144 44.2L542.136 44.3867L542.341 42.2H540.144V44.2ZM516.096 44.2H514.096V46.2H516.096V44.2ZM516.096 29.8V27.8H514.096V29.8H516.096ZM541.08 29.8V31.8H543.011L543.079 29.8701L541.08 29.8ZM541.296 16.84H543.296V14.84H541.296V16.84ZM515.376 16.84H513.376V18.84H515.376V16.84ZM515.376 2.44V0.439999H513.376V2.44H515.376ZM557.856 2.44H559.856V0.439999H557.856V2.44ZM557.064 40.6L559.058 40.7602L559.059 40.7514L559.059 40.7425L557.064 40.6ZM578.016 23.68H576.016V25.68H578.016V23.68ZM583.776 23.68H585.776V21.68H583.776V23.68ZM583.776 39.52V41.52H585.776V39.52H583.776ZM578.016 39.52V37.52H576.016V39.52H578.016ZM578.016 65.8V67.8H580.016V65.8H578.016ZM561.456 65.8H559.456V67.8H561.456V65.8ZM561.456 0.279996V-1.72H559.456V0.279996H561.456ZM578.016 0.279996H580.016V-1.72H578.016V0.279996ZM553.536 63.8H536.976V67.8H553.536V63.8ZM538.94 66.1817C540.463 58.3484 541.481 51.371 542.136 44.3867L538.153 44.0133C537.512 50.853 536.514 57.6996 535.013 65.4183L538.94 66.1817ZM540.144 42.2H516.096V46.2H540.144V42.2ZM518.096 44.2V29.8H514.096V44.2H518.096ZM516.096 31.8H541.08V27.8H516.096V31.8ZM543.079 29.8701C543.224 25.7405 543.296 21.397 543.296 16.84H539.296C539.296 21.355 539.225 25.6515 539.081 29.7299L543.079 29.8701ZM541.296 14.84H515.376V18.84H541.296V14.84ZM517.376 16.84V2.44H513.376V16.84H517.376ZM515.376 4.44H557.856V0.439999H515.376V4.44ZM555.856 2.44V15.4H559.856V2.44H555.856ZM555.856 15.4C555.856 24.368 555.641 32.4543 555.069 40.4575L559.059 40.7425C559.64 32.6177 559.856 24.432 559.856 15.4H555.856ZM555.071 40.4398C554.429 48.4297 553.359 56.4881 551.575 65.4078L555.497 66.1922C557.314 57.1119 558.404 48.8983 559.058 40.7602L555.071 40.4398ZM578.016 25.68H583.776V21.68H578.016V25.68ZM581.776 23.68V39.52H585.776V23.68H581.776ZM583.776 37.52H578.016V41.52H583.776V37.52ZM576.016 39.52V65.8H580.016V39.52H576.016ZM578.016 63.8H561.456V67.8H578.016V63.8ZM563.456 65.8V0.279996H559.456V65.8H563.456ZM561.456 2.28H578.016V-1.72H561.456V2.28ZM576.016 0.279996V23.68H580.016V0.279996H576.016ZM611.856 29.8H609.856V31.8H611.856V29.8ZM657.216 29.8H659.216V27.8H657.216V29.8ZM657.216 44.2V46.2H659.216V44.2H657.216ZM595.296 44.2H593.296V46.2H595.296V44.2ZM595.296 1.72V-0.280001H593.296V1.72H595.296ZM657.216 1.72H659.216V-0.280001H657.216V1.72ZM657.216 16.12V18.12H659.216V16.12H657.216ZM611.856 16.12V14.12H609.856V16.12H611.856ZM593.136 51.4V49.4H591.136V51.4H593.136ZM659.376 51.4H661.376V49.4H659.376V51.4ZM659.376 65.8V67.8H661.376V65.8H659.376ZM593.136 65.8H591.136V67.8H593.136V65.8ZM611.856 31.8H657.216V27.8H611.856V31.8ZM655.216 29.8V44.2H659.216V29.8H655.216ZM657.216 42.2H595.296V46.2H657.216V42.2ZM597.296 44.2V1.72H593.296V44.2H597.296ZM595.296 3.72H657.216V-0.280001H595.296V3.72ZM655.216 1.72V16.12H659.216V1.72H655.216ZM657.216 14.12H611.856V18.12H657.216V14.12ZM609.856 16.12V29.8H613.856V16.12H609.856ZM593.136 53.4H659.376V49.4H593.136V53.4ZM657.376 51.4V65.8H661.376V51.4H657.376ZM659.376 63.8H593.136V67.8H659.376V63.8ZM595.136 65.8V51.4H591.136V65.8H595.136Z" fill="url(#paint0_linear_1286_6129)"/>
<defs>
<linearGradient id="paint0_linear_1286_6129" x1="-13.5643" y1="6.71035" x2="603.375" y2="234.409" gradientUnits="userSpaceOnUse">
<stop stop-color="#8C8AFF"/>
<stop offset="0.5625" stop-color="#A98AFF"/>
<stop offset="1" stop-color="#DB74FF"/>
</linearGradient>
</defs>
</svg>
