<svg width="953" height="125" viewBox="0 0 953 125" fill="none" xmlns="http://www.w3.org/2000/svg">
<g filter="url(#filter0_f_707_33032)">
<path d="M47.28 76.072L70.32 73.32V86.12L32.56 90.6V34.28H47.28V76.072ZM88.24 53.16H93.36V67.24H88.24V90.6H73.52V32.36H88.24V53.16ZM101.68 34.28H139.44V65L101.68 68.2V34.28ZM101.68 70.76H116.4V80.36H157.36V92.52H101.68V70.76ZM157.36 46.12H162.48V59.56H157.36V73.32H142.64V32.36H157.36V46.12ZM115.44 46.44V54.888L125.68 54.056V46.44H115.44ZM229.04 32.36V90.6H214.32V32.36H229.04ZM169.52 77.8H211.12V90.6H169.52V77.8ZM196.72 51.88C196.72 47.208 194.608 44.52 190.32 44.52C186.032 44.52 183.92 47.208 183.92 51.88C183.92 56.552 186.032 59.24 190.32 59.24C194.608 59.24 196.72 56.552 196.72 51.88ZM210.48 51.88C210.48 63.976 203.44 71.4 190.32 71.4C177.2 71.4 170.16 63.976 170.16 51.88C170.16 39.784 177.2 32.36 190.32 32.36C203.44 32.36 210.48 39.784 210.48 51.88ZM320.577 50.28C320.577 61.672 311.873 68.2 292.417 68.2C272.961 68.2 264.257 61.672 264.257 50.28C264.257 38.952 272.961 32.36 292.417 32.36C311.873 32.36 320.577 38.888 320.577 50.28ZM262.977 70.76H321.857V83.56H312.577V92.52H297.857V83.56H286.977V92.52H272.257V83.56H262.977V70.76ZM306.497 50.28C306.497 46.12 303.553 44.52 292.417 44.52C281.281 44.52 278.337 46.12 278.337 50.28C278.337 54.44 281.281 56.04 292.417 56.04C303.553 56.04 306.497 54.44 306.497 50.28ZM346.818 76.072L369.858 73.32V86.12L332.098 90.6V34.28H346.818V76.072ZM390.338 32.36V90.6H375.618V32.36H390.338ZM444.738 66.92H438.978V86.12L401.218 90.6V34.28H415.298V50.28H424.898V34.28H438.978V53.48H444.738V32.36H459.458V90.6H444.738V66.92ZM415.298 62.44V76.776L424.898 75.624V62.44H415.298ZM499.841 49.96L487.425 71.4H469.825L492.737 33H509.697L502.273 45.8H514.241L529.729 71.4H511.873L499.841 49.96ZM470.337 77.8H529.217V90.6H470.337V77.8ZM596.435 90.6H581.715C583.059 83.688 583.955 77.544 584.531 71.4H563.155V58.6H585.363C585.491 54.952 585.555 51.112 585.555 47.08H562.515V34.28H600.275V45.8C600.275 53.8 600.083 61.032 599.571 68.2C598.995 75.368 598.035 82.6 596.435 90.6ZM618.195 53.16H623.315V67.24H618.195V90.6H603.475V32.36H618.195V53.16ZM648.275 58.6H688.595V71.4H633.555V33.64H688.595V46.44H648.275V58.6ZM631.635 77.8H690.515V90.6H631.635V77.8ZM723.813 34.28H761.573V65L723.813 68.2V34.28ZM723.813 70.76H738.533V80.36H779.493V92.52H723.813V70.76ZM779.493 46.12H784.613V59.56H779.493V73.32H764.773V32.36H779.493V46.12ZM737.573 46.44V54.888L747.813 54.056V46.44H737.573ZM810.852 83.752H849.893V91.88H794.852V74.664H833.892V73H794.852V64.872H849.893V82.152H810.852V83.752ZM794.852 33.64H849.893V41.448H809.572V44.136H849.893V51.944H794.852V33.64ZM792.932 53.864H851.812V62.952H792.932V53.864ZM895.972 90.6H881.252C882.788 82.728 883.748 75.816 884.324 68.84C884.836 61.864 885.092 54.952 885.092 47.08H862.052V34.28H899.812V45.8C899.812 53.8 899.62 61.032 899.108 68.2C898.532 75.368 897.572 82.6 895.972 90.6ZM920.292 32.36V90.6H905.572V32.36H920.292Z" fill="white" fill-opacity="0.1"/>
<path d="M47.28 76.072H45.28V78.3251L47.5172 78.0579L47.28 76.072ZM70.32 73.32H72.32V71.0669L70.0828 71.3341L70.32 73.32ZM70.32 86.12L70.5556 88.1061L72.32 87.8967V86.12H70.32ZM32.56 90.6H30.56V92.8513L32.7956 92.5861L32.56 90.6ZM32.56 34.28V32.28H30.56V34.28H32.56ZM47.28 34.28H49.28V32.28H47.28V34.28ZM88.24 53.16H86.24V55.16H88.24V53.16ZM93.36 53.16H95.36V51.16H93.36V53.16ZM93.36 67.24V69.24H95.36V67.24H93.36ZM88.24 67.24V65.24H86.24V67.24H88.24ZM88.24 90.6V92.6H90.24V90.6H88.24ZM73.52 90.6H71.52V92.6H73.52V90.6ZM73.52 32.36V30.36H71.52V32.36H73.52ZM88.24 32.36H90.24V30.36H88.24V32.36ZM47.5172 78.0579L70.5572 75.3059L70.0828 71.3341L47.0428 74.0861L47.5172 78.0579ZM68.32 73.32V86.12H72.32V73.32H68.32ZM70.0844 84.1339L32.3244 88.6139L32.7956 92.5861L70.5556 88.1061L70.0844 84.1339ZM34.56 90.6V34.28H30.56V90.6H34.56ZM32.56 36.28H47.28V32.28H32.56V36.28ZM45.28 34.28V76.072H49.28V34.28H45.28ZM88.24 55.16H93.36V51.16H88.24V55.16ZM91.36 53.16V67.24H95.36V53.16H91.36ZM93.36 65.24H88.24V69.24H93.36V65.24ZM86.24 67.24V90.6H90.24V67.24H86.24ZM88.24 88.6H73.52V92.6H88.24V88.6ZM75.52 90.6V32.36H71.52V90.6H75.52ZM73.52 34.36H88.24V30.36H73.52V34.36ZM86.24 32.36V53.16H90.24V32.36H86.24ZM101.68 34.28V32.28H99.68V34.28H101.68ZM139.44 34.28H141.44V32.28H139.44V34.28ZM139.44 65L139.609 66.9929L141.44 66.8377V65H139.44ZM101.68 68.2H99.68V70.3767L101.849 70.1929L101.68 68.2ZM101.68 70.76V68.76H99.68V70.76H101.68ZM116.4 70.76H118.4V68.76H116.4V70.76ZM116.4 80.36H114.4V82.36H116.4V80.36ZM157.36 80.36H159.36V78.36H157.36V80.36ZM157.36 92.52V94.52H159.36V92.52H157.36ZM101.68 92.52H99.68V94.52H101.68V92.52ZM157.36 46.12H155.36V48.12H157.36V46.12ZM162.48 46.12H164.48V44.12H162.48V46.12ZM162.48 59.56V61.56H164.48V59.56H162.48ZM157.36 59.56V57.56H155.36V59.56H157.36ZM157.36 73.32V75.32H159.36V73.32H157.36ZM142.64 73.32H140.64V75.32H142.64V73.32ZM142.64 32.36V30.36H140.64V32.36H142.64ZM157.36 32.36H159.36V30.36H157.36V32.36ZM115.44 46.44V44.44H113.44V46.44H115.44ZM115.44 54.888H113.44V57.0571L115.602 56.8814L115.44 54.888ZM125.68 54.056L125.842 56.0494L127.68 55.9001V54.056H125.68ZM125.68 46.44H127.68V44.44H125.68V46.44ZM101.68 36.28H139.44V32.28H101.68V36.28ZM137.44 34.28V65H141.44V34.28H137.44ZM139.271 63.0071L101.511 66.2071L101.849 70.1929L139.609 66.9929L139.271 63.0071ZM103.68 68.2V34.28H99.68V68.2H103.68ZM101.68 72.76H116.4V68.76H101.68V72.76ZM114.4 70.76V80.36H118.4V70.76H114.4ZM116.4 82.36H157.36V78.36H116.4V82.36ZM155.36 80.36V92.52H159.36V80.36H155.36ZM157.36 90.52H101.68V94.52H157.36V90.52ZM103.68 92.52V70.76H99.68V92.52H103.68ZM157.36 48.12H162.48V44.12H157.36V48.12ZM160.48 46.12V59.56H164.48V46.12H160.48ZM162.48 57.56H157.36V61.56H162.48V57.56ZM155.36 59.56V73.32H159.36V59.56H155.36ZM157.36 71.32H142.64V75.32H157.36V71.32ZM144.64 73.32V32.36H140.64V73.32H144.64ZM142.64 34.36H157.36V30.36H142.64V34.36ZM155.36 32.36V46.12H159.36V32.36H155.36ZM113.44 46.44V54.888H117.44V46.44H113.44ZM115.602 56.8814L125.842 56.0494L125.518 52.0626L115.278 52.8946L115.602 56.8814ZM127.68 54.056V46.44H123.68V54.056H127.68ZM125.68 44.44H115.44V48.44H125.68V44.44ZM229.04 32.36H231.04V30.36H229.04V32.36ZM229.04 90.6V92.6H231.04V90.6H229.04ZM214.32 90.6H212.32V92.6H214.32V90.6ZM214.32 32.36V30.36H212.32V32.36H214.32ZM169.52 77.8V75.8H167.52V77.8H169.52ZM211.12 77.8H213.12V75.8H211.12V77.8ZM211.12 90.6V92.6H213.12V90.6H211.12ZM169.52 90.6H167.52V92.6H169.52V90.6ZM227.04 32.36V90.6H231.04V32.36H227.04ZM229.04 88.6H214.32V92.6H229.04V88.6ZM216.32 90.6V32.36H212.32V90.6H216.32ZM214.32 34.36H229.04V30.36H214.32V34.36ZM169.52 79.8H211.12V75.8H169.52V79.8ZM209.12 77.8V90.6H213.12V77.8H209.12ZM211.12 88.6H169.52V92.6H211.12V88.6ZM171.52 90.6V77.8H167.52V90.6H171.52ZM198.72 51.88C198.72 49.2806 198.137 46.9056 196.654 45.1552C195.123 43.3476 192.902 42.52 190.32 42.52V46.52C192.026 46.52 193.005 47.0364 193.602 47.7408C194.247 48.5024 194.72 49.8074 194.72 51.88H198.72ZM190.32 42.52C187.738 42.52 185.517 43.3476 183.986 45.1552C182.503 46.9056 181.92 49.2806 181.92 51.88H185.92C185.92 49.8074 186.393 48.5024 187.038 47.7408C187.635 47.0364 188.614 46.52 190.32 46.52V42.52ZM181.92 51.88C181.92 54.4794 182.503 56.8544 183.986 58.6048C185.517 60.4124 187.738 61.24 190.32 61.24V57.24C188.614 57.24 187.635 56.7236 187.038 56.0192C186.393 55.2576 185.92 53.9526 185.92 51.88H181.92ZM190.32 61.24C192.902 61.24 195.123 60.4124 196.654 58.6048C198.137 56.8544 198.72 54.4794 198.72 51.88H194.72C194.72 53.9526 194.247 55.2576 193.602 56.0192C193.005 56.7236 192.026 57.24 190.32 57.24V61.24ZM208.48 51.88C208.48 57.5433 206.839 61.856 203.912 64.7551C200.984 67.6556 196.508 69.4 190.32 69.4V73.4C197.252 73.4 202.856 71.4324 206.728 67.5969C210.601 63.76 212.48 58.3127 212.48 51.88H208.48ZM190.32 69.4C184.132 69.4 179.656 67.6556 176.728 64.7551C173.801 61.856 172.16 57.5433 172.16 51.88H168.16C168.16 58.3127 170.039 63.76 173.912 67.5969C177.784 71.4324 183.388 73.4 190.32 73.4V69.4ZM172.16 51.88C172.16 46.2167 173.801 41.904 176.728 39.0049C179.656 36.1044 184.132 34.36 190.32 34.36V30.36C183.388 30.36 177.784 32.3276 173.912 36.1631C170.039 40 168.16 45.4473 168.16 51.88H172.16ZM190.32 34.36C196.508 34.36 200.984 36.1044 203.912 39.0049C206.839 41.904 208.48 46.2167 208.48 51.88H212.48C212.48 45.4473 210.601 40 206.728 36.1631C202.856 32.3276 197.252 30.36 190.32 30.36V34.36ZM262.977 70.76V68.76H260.977V70.76H262.977ZM321.857 70.76H323.857V68.76H321.857V70.76ZM321.857 83.56V85.56H323.857V83.56H321.857ZM312.578 83.56V81.56H310.578V83.56H312.578ZM312.578 92.52V94.52H314.578V92.52H312.578ZM297.857 92.52H295.857V94.52H297.857V92.52ZM297.857 83.56H299.857V81.56H297.857V83.56ZM286.978 83.56V81.56H284.977V83.56H286.978ZM286.978 92.52V94.52H288.978V92.52H286.978ZM272.257 92.52H270.257V94.52H272.257V92.52ZM272.257 83.56H274.257V81.56H272.257V83.56ZM262.977 83.56H260.977V85.56H262.977V83.56ZM318.578 50.28C318.578 55.3807 316.678 59.1994 312.688 61.8452C308.558 64.5841 301.983 66.2 292.417 66.2V70.2C302.308 70.2 309.813 68.5519 314.899 65.1788C320.125 61.7126 322.578 56.5713 322.578 50.28H318.578ZM292.417 66.2C282.852 66.2 276.277 64.5841 272.147 61.8452C268.157 59.1994 266.257 55.3807 266.257 50.28H262.257C262.257 56.5713 264.71 61.7126 269.936 65.1788C275.022 68.5519 282.527 70.2 292.417 70.2V66.2ZM266.257 50.28C266.257 45.2141 268.155 41.3928 272.149 38.7374C276.28 35.9908 282.855 34.36 292.417 34.36V30.36C282.524 30.36 275.019 32.0252 269.934 35.4066C264.712 38.8792 262.257 44.0179 262.257 50.28H266.257ZM292.417 34.36C301.983 34.36 308.558 35.9759 312.688 38.7148C316.678 41.3606 318.578 45.1793 318.578 50.28H322.578C322.578 43.9887 320.125 38.8474 314.899 35.3812C309.813 32.0081 302.308 30.36 292.417 30.36V34.36ZM262.977 72.76H321.857V68.76H262.977V72.76ZM319.857 70.76V83.56H323.857V70.76H319.857ZM321.857 81.56H312.578V85.56H321.857V81.56ZM310.578 83.56V92.52H314.578V83.56H310.578ZM312.578 90.52H297.857V94.52H312.578V90.52ZM299.857 92.52V83.56H295.857V92.52H299.857ZM297.857 81.56H286.978V85.56H297.857V81.56ZM284.977 83.56V92.52H288.978V83.56H284.977ZM286.978 90.52H272.257V94.52H286.978V90.52ZM274.257 92.52V83.56H270.257V92.52H274.257ZM272.257 81.56H262.977V85.56H272.257V81.56ZM264.977 83.56V70.76H260.977V83.56H264.977ZM308.497 50.28C308.497 49.0134 308.274 47.7323 307.569 46.5807C306.854 45.4127 305.771 44.5852 304.427 44.0042C301.876 42.9012 297.969 42.52 292.417 42.52V46.52C298.002 46.52 301.135 46.9388 302.84 47.6758C303.624 48.0148 303.973 48.3673 304.158 48.6693C304.353 48.9876 304.497 49.4666 304.497 50.28H308.497ZM292.417 42.52C286.866 42.52 282.959 42.9012 280.408 44.0042C279.064 44.5852 277.981 45.4127 277.266 46.5807C276.561 47.7323 276.337 49.0134 276.337 50.28H280.337C280.337 49.4666 280.482 48.9876 280.677 48.6693C280.862 48.3673 281.211 48.0148 281.995 47.6758C283.7 46.9388 286.833 46.52 292.417 46.52V42.52ZM276.337 50.28C276.337 51.5466 276.561 52.8276 277.266 53.9793C277.981 55.1473 279.064 55.9748 280.408 56.5558C282.959 57.6588 286.866 58.04 292.417 58.04V54.04C286.833 54.04 283.7 53.6212 281.995 52.8842C281.211 52.5452 280.862 52.1927 280.677 51.8907C280.482 51.5723 280.337 51.0934 280.337 50.28H276.337ZM292.417 58.04C297.969 58.04 301.876 57.6588 304.427 56.5558C305.771 55.9748 306.854 55.1473 307.569 53.9793C308.274 52.8276 308.497 51.5466 308.497 50.28H304.497C304.497 51.0934 304.353 51.5723 304.158 51.8907C303.973 52.1927 303.624 52.5452 302.84 52.8842C301.135 53.6212 298.002 54.04 292.417 54.04V58.04ZM346.818 76.072H344.818V78.3251L347.055 78.0579L346.818 76.072ZM369.858 73.32H371.858V71.0669L369.62 71.3341L369.858 73.32ZM369.858 86.12L370.093 88.1061L371.858 87.8967V86.12H369.858ZM332.098 90.6H330.098V92.8513L332.333 92.5861L332.098 90.6ZM332.098 34.28V32.28H330.098V34.28H332.098ZM346.818 34.28H348.818V32.28H346.818V34.28ZM390.338 32.36H392.338V30.36H390.338V32.36ZM390.338 90.6V92.6H392.338V90.6H390.338ZM375.617 90.6H373.617V92.6H375.617V90.6ZM375.617 32.36V30.36H373.617V32.36H375.617ZM347.055 78.0579L370.095 75.3059L369.62 71.3341L346.58 74.0861L347.055 78.0579ZM367.858 73.32V86.12H371.858V73.32H367.858ZM369.622 84.1339L331.862 88.6139L332.333 92.5861L370.093 88.1061L369.622 84.1339ZM334.098 90.6V34.28H330.098V90.6H334.098ZM332.098 36.28H346.818V32.28H332.098V36.28ZM344.818 34.28V76.072H348.818V34.28H344.818ZM388.338 32.36V90.6H392.338V32.36H388.338ZM390.338 88.6H375.617V92.6H390.338V88.6ZM377.617 90.6V32.36H373.617V90.6H377.617ZM375.617 34.36H390.338V30.36H375.617V34.36ZM444.737 66.92H446.737V64.92H444.737V66.92ZM438.978 66.92V64.92H436.978V66.92H438.978ZM438.978 86.12L439.213 88.1061L440.978 87.8967V86.12H438.978ZM401.217 90.6H399.217V92.8513L401.453 92.5861L401.217 90.6ZM401.217 34.28V32.28H399.217V34.28H401.217ZM415.298 34.28H417.298V32.28H415.298V34.28ZM415.298 50.28H413.298V52.28H415.298V50.28ZM424.897 50.28V52.28H426.897V50.28H424.897ZM424.897 34.28V32.28H422.897V34.28H424.897ZM438.978 34.28H440.978V32.28H438.978V34.28ZM438.978 53.48H436.978V55.48H438.978V53.48ZM444.737 53.48V55.48H446.737V53.48H444.737ZM444.737 32.36V30.36H442.737V32.36H444.737ZM459.458 32.36H461.458V30.36H459.458V32.36ZM459.458 90.6V92.6H461.458V90.6H459.458ZM444.737 90.6H442.737V92.6H444.737V90.6ZM415.298 62.44V60.44H413.298V62.44H415.298ZM415.298 76.776H413.298V79.0303L415.536 78.7618L415.298 76.776ZM424.897 75.624L425.136 77.6098L426.897 77.3983V75.624H424.897ZM424.897 62.44H426.897V60.44H424.897V62.44ZM444.737 64.92H438.978V68.92H444.737V64.92ZM436.978 66.92V86.12H440.978V66.92H436.978ZM438.742 84.1339L400.982 88.6139L401.453 92.5861L439.213 88.1061L438.742 84.1339ZM403.217 90.6V34.28H399.217V90.6H403.217ZM401.217 36.28H415.298V32.28H401.217V36.28ZM413.298 34.28V50.28H417.298V34.28H413.298ZM415.298 52.28H424.897V48.28H415.298V52.28ZM426.897 50.28V34.28H422.897V50.28H426.897ZM424.897 36.28H438.978V32.28H424.897V36.28ZM436.978 34.28V53.48H440.978V34.28H436.978ZM438.978 55.48H444.737V51.48H438.978V55.48ZM446.737 53.48V32.36H442.737V53.48H446.737ZM444.737 34.36H459.458V30.36H444.737V34.36ZM457.458 32.36V90.6H461.458V32.36H457.458ZM459.458 88.6H444.737V92.6H459.458V88.6ZM446.737 90.6V66.92H442.737V90.6H446.737ZM413.298 62.44V76.776H417.298V62.44H413.298ZM415.536 78.7618L425.136 77.6098L424.659 73.6382L415.059 74.7902L415.536 78.7618ZM426.897 75.624V62.44H422.897V75.624H426.897ZM424.897 60.44H415.298V64.44H424.897V60.44ZM499.841 49.96L501.586 48.9812L499.869 45.922L498.111 48.9577L499.841 49.96ZM487.426 71.4V73.4H488.578L489.156 72.4023L487.426 71.4ZM469.826 71.4L468.108 70.3752L466.303 73.4H469.826V71.4ZM492.737 33V31H491.602L491.02 31.9752L492.737 33ZM509.698 33L511.428 34.0034L513.17 31H509.698V33ZM502.273 45.8L500.543 44.7966L498.801 47.8H502.273V45.8ZM514.241 45.8L515.953 44.7647L515.369 43.8H514.241V45.8ZM529.729 71.4V73.4H533.277L531.441 70.3647L529.729 71.4ZM511.874 71.4L510.129 72.3788L510.702 73.4H511.874V71.4ZM470.337 77.8V75.8H468.337V77.8H470.337ZM529.217 77.8H531.217V75.8H529.217V77.8ZM529.217 90.6V92.6H531.217V90.6H529.217ZM470.337 90.6H468.337V92.6H470.337V90.6ZM498.111 48.9577L485.695 70.3977L489.156 72.4023L501.572 50.9623L498.111 48.9577ZM487.426 69.4H469.826V73.4H487.426V69.4ZM471.543 72.4248L494.455 34.0248L491.02 31.9752L468.108 70.3752L471.543 72.4248ZM492.737 35H509.698V31H492.737V35ZM507.967 31.9966L500.543 44.7966L504.004 46.8034L511.428 34.0034L507.967 31.9966ZM502.273 47.8H514.241V43.8H502.273V47.8ZM512.53 46.8353L528.018 72.4353L531.441 70.3647L515.953 44.7647L512.53 46.8353ZM529.729 69.4H511.874V73.4H529.729V69.4ZM513.618 70.4212L501.586 48.9812L498.097 50.9388L510.129 72.3788L513.618 70.4212ZM470.337 79.8H529.217V75.8H470.337V79.8ZM527.217 77.8V90.6H531.217V77.8H527.217ZM529.217 88.6H470.337V92.6H529.217V88.6ZM472.337 90.6V77.8H468.337V90.6H472.337ZM596.435 90.6V92.6H598.075L598.396 90.9922L596.435 90.6ZM581.715 90.6L579.752 90.2183L579.289 92.6H581.715V90.6ZM584.531 71.4L586.522 71.5867L586.727 69.4H584.531V71.4ZM563.155 71.4H561.155V73.4H563.155V71.4ZM563.155 58.6V56.6H561.155V58.6H563.155ZM585.363 58.6V60.6H587.294L587.362 58.6701L585.363 58.6ZM585.555 47.08H587.555V45.08H585.555V47.08ZM562.515 47.08H560.515V49.08H562.515V47.08ZM562.515 34.28V32.28H560.515V34.28H562.515ZM600.275 34.28H602.275V32.28H600.275V34.28ZM599.571 68.2L601.565 68.3602L601.565 68.3513L601.566 68.3425L599.571 68.2ZM618.195 53.16H616.195V55.16H618.195V53.16ZM623.315 53.16H625.315V51.16H623.315V53.16ZM623.315 67.24V69.24H625.315V67.24H623.315ZM618.195 67.24V65.24H616.195V67.24H618.195ZM618.195 90.6V92.6H620.195V90.6H618.195ZM603.475 90.6H601.475V92.6H603.475V90.6ZM603.475 32.36V30.36H601.475V32.36H603.475ZM618.195 32.36H620.195V30.36H618.195V32.36ZM596.435 88.6H581.715V92.6H596.435V88.6ZM583.678 90.9817C585.033 84.0124 585.94 77.803 586.522 71.5867L582.54 71.2133C581.971 77.285 581.085 83.3636 579.752 90.2183L583.678 90.9817ZM584.531 69.4H563.155V73.4H584.531V69.4ZM565.155 71.4V58.6H561.155V71.4H565.155ZM563.155 60.6H585.363V56.6H563.155V60.6ZM587.362 58.6701C587.491 54.9965 587.555 51.133 587.555 47.08H583.555C583.555 51.091 583.491 54.9075 583.364 58.5299L587.362 58.6701ZM585.555 45.08H562.515V49.08H585.555V45.08ZM564.515 47.08V34.28H560.515V47.08H564.515ZM562.515 36.28H600.275V32.28H562.515V36.28ZM598.275 34.28V45.8H602.275V34.28H598.275ZM598.275 45.8C598.275 53.768 598.084 60.9503 597.576 68.0575L601.566 68.3425C602.082 61.1137 602.275 53.832 602.275 45.8H598.275ZM597.577 68.0398C597.007 75.1337 596.058 82.2881 594.474 90.2078L598.396 90.9922C600.012 82.9119 600.983 75.6022 601.565 68.3602L597.577 68.0398ZM618.195 55.16H623.315V51.16H618.195V55.16ZM621.315 53.16V67.24H625.315V53.16H621.315ZM623.315 65.24H618.195V69.24H623.315V65.24ZM616.195 67.24V90.6H620.195V67.24H616.195ZM618.195 88.6H603.475V92.6H618.195V88.6ZM605.475 90.6V32.36H601.475V90.6H605.475ZM603.475 34.36H618.195V30.36H603.475V34.36ZM616.195 32.36V53.16H620.195V32.36H616.195ZM648.275 58.6H646.275V60.6H648.275V58.6ZM688.595 58.6H690.595V56.6H688.595V58.6ZM688.595 71.4V73.4H690.595V71.4H688.595ZM633.555 71.4H631.555V73.4H633.555V71.4ZM633.555 33.64V31.64H631.555V33.64H633.555ZM688.595 33.64H690.595V31.64H688.595V33.64ZM688.595 46.44V48.44H690.595V46.44H688.595ZM648.275 46.44V44.44H646.275V46.44H648.275ZM631.635 77.8V75.8H629.635V77.8H631.635ZM690.515 77.8H692.515V75.8H690.515V77.8ZM690.515 90.6V92.6H692.515V90.6H690.515ZM631.635 90.6H629.635V92.6H631.635V90.6ZM648.275 60.6H688.595V56.6H648.275V60.6ZM686.595 58.6V71.4H690.595V58.6H686.595ZM688.595 69.4H633.555V73.4H688.595V69.4ZM635.555 71.4V33.64H631.555V71.4H635.555ZM633.555 35.64H688.595V31.64H633.555V35.64ZM686.595 33.64V46.44H690.595V33.64H686.595ZM688.595 44.44H648.275V48.44H688.595V44.44ZM646.275 46.44V58.6H650.275V46.44H646.275ZM631.635 79.8H690.515V75.8H631.635V79.8ZM688.515 77.8V90.6H692.515V77.8H688.515ZM690.515 88.6H631.635V92.6H690.515V88.6ZM633.635 90.6V77.8H629.635V90.6H633.635ZM723.812 34.28V32.28H721.812V34.28H723.812ZM761.573 34.28H763.573V32.28H761.573V34.28ZM761.573 65L761.741 66.9929L763.573 66.8377V65H761.573ZM723.812 68.2H721.812V70.3767L723.981 70.1929L723.812 68.2ZM723.812 70.76V68.76H721.812V70.76H723.812ZM738.533 70.76H740.533V68.76H738.533V70.76ZM738.533 80.36H736.533V82.36H738.533V80.36ZM779.492 80.36H781.492V78.36H779.492V80.36ZM779.492 92.52V94.52H781.492V92.52H779.492ZM723.812 92.52H721.812V94.52H723.812V92.52ZM779.492 46.12H777.492V48.12H779.492V46.12ZM784.612 46.12H786.612V44.12H784.612V46.12ZM784.612 59.56V61.56H786.612V59.56H784.612ZM779.492 59.56V57.56H777.492V59.56H779.492ZM779.492 73.32V75.32H781.492V73.32H779.492ZM764.773 73.32H762.773V75.32H764.773V73.32ZM764.773 32.36V30.36H762.773V32.36H764.773ZM779.492 32.36H781.492V30.36H779.492V32.36ZM737.573 46.44V44.44H735.573V46.44H737.573ZM737.573 54.888H735.573V57.0571L737.734 56.8814L737.573 54.888ZM747.812 54.056L747.974 56.0494L749.812 55.9001V54.056H747.812ZM747.812 46.44H749.812V44.44H747.812V46.44ZM723.812 36.28H761.573V32.28H723.812V36.28ZM759.573 34.28V65H763.573V34.28H759.573ZM761.404 63.0071L723.644 66.2071L723.981 70.1929L761.741 66.9929L761.404 63.0071ZM725.812 68.2V34.28H721.812V68.2H725.812ZM723.812 72.76H738.533V68.76H723.812V72.76ZM736.533 70.76V80.36H740.533V70.76H736.533ZM738.533 82.36H779.492V78.36H738.533V82.36ZM777.492 80.36V92.52H781.492V80.36H777.492ZM779.492 90.52H723.812V94.52H779.492V90.52ZM725.812 92.52V70.76H721.812V92.52H725.812ZM779.492 48.12H784.612V44.12H779.492V48.12ZM782.612 46.12V59.56H786.612V46.12H782.612ZM784.612 57.56H779.492V61.56H784.612V57.56ZM777.492 59.56V73.32H781.492V59.56H777.492ZM779.492 71.32H764.773V75.32H779.492V71.32ZM766.773 73.32V32.36H762.773V73.32H766.773ZM764.773 34.36H779.492V30.36H764.773V34.36ZM777.492 32.36V46.12H781.492V32.36H777.492ZM735.573 46.44V54.888H739.573V46.44H735.573ZM737.734 56.8814L747.974 56.0494L747.651 52.0626L737.411 52.8946L737.734 56.8814ZM749.812 54.056V46.44H745.812V54.056H749.812ZM747.812 44.44H737.573V48.44H747.812V44.44ZM810.852 83.752H808.852V85.752H810.852V83.752ZM849.893 83.752H851.893V81.752H849.893V83.752ZM849.893 91.88V93.88H851.893V91.88H849.893ZM794.852 91.88H792.852V93.88H794.852V91.88ZM794.852 74.664V72.664H792.852V74.664H794.852ZM833.893 74.664V76.664H835.893V74.664H833.893ZM833.893 73H835.893V71H833.893V73ZM794.852 73H792.852V75H794.852V73ZM794.852 64.872V62.872H792.852V64.872H794.852ZM849.893 64.872H851.893V62.872H849.893V64.872ZM849.893 82.152V84.152H851.893V82.152H849.893ZM810.852 82.152V80.152H808.852V82.152H810.852ZM794.852 33.64V31.64H792.852V33.64H794.852ZM849.893 33.64H851.893V31.64H849.893V33.64ZM849.893 41.448V43.448H851.893V41.448H849.893ZM809.573 41.448V39.448H807.573V41.448H809.573ZM809.573 44.136H807.573V46.136H809.573V44.136ZM849.893 44.136H851.893V42.136H849.893V44.136ZM849.893 51.944V53.944H851.893V51.944H849.893ZM794.852 51.944H792.852V53.944H794.852V51.944ZM792.932 53.864V51.864H790.932V53.864H792.932ZM851.812 53.864H853.812V51.864H851.812V53.864ZM851.812 62.952V64.952H853.812V62.952H851.812ZM792.932 62.952H790.932V64.952H792.932V62.952ZM810.852 85.752H849.893V81.752H810.852V85.752ZM847.893 83.752V91.88H851.893V83.752H847.893ZM849.893 89.88H794.852V93.88H849.893V89.88ZM796.852 91.88V74.664H792.852V91.88H796.852ZM794.852 76.664H833.893V72.664H794.852V76.664ZM835.893 74.664V73H831.893V74.664H835.893ZM833.893 71H794.852V75H833.893V71ZM796.852 73V64.872H792.852V73H796.852ZM794.852 66.872H849.893V62.872H794.852V66.872ZM847.893 64.872V82.152H851.893V64.872H847.893ZM849.893 80.152H810.852V84.152H849.893V80.152ZM808.852 82.152V83.752H812.852V82.152H808.852ZM794.852 35.64H849.893V31.64H794.852V35.64ZM847.893 33.64V41.448H851.893V33.64H847.893ZM849.893 39.448H809.573V43.448H849.893V39.448ZM807.573 41.448V44.136H811.573V41.448H807.573ZM809.573 46.136H849.893V42.136H809.573V46.136ZM847.893 44.136V51.944H851.893V44.136H847.893ZM849.893 49.944H794.852V53.944H849.893V49.944ZM796.852 51.944V33.64H792.852V51.944H796.852ZM792.932 55.864H851.812V51.864H792.932V55.864ZM849.812 53.864V62.952H853.812V53.864H849.812ZM851.812 60.952H792.932V64.952H851.812V60.952ZM794.932 62.952V53.864H790.932V62.952H794.932ZM895.972 90.6V92.6H897.612L897.934 90.9922L895.972 90.6ZM881.253 90.6L879.289 90.217L878.825 92.6H881.253V90.6ZM884.324 68.84L886.318 69.0046L886.318 68.9955L886.319 68.9864L884.324 68.84ZM885.092 47.08H887.092V45.08H885.092V47.08ZM862.052 47.08H860.052V49.08H862.052V47.08ZM862.052 34.28V32.28H860.052V34.28H862.052ZM899.812 34.28H901.812V32.28H899.812V34.28ZM899.109 68.2L901.102 68.3602L901.103 68.3513L901.103 68.3425L899.109 68.2ZM920.292 32.36H922.292V30.36H920.292V32.36ZM920.292 90.6V92.6H922.292V90.6H920.292ZM905.573 90.6H903.573V92.6H905.573V90.6ZM905.573 32.36V30.36H903.573V32.36H905.573ZM895.972 88.6H881.253V92.6H895.972V88.6ZM883.215 90.983C884.764 83.0446 885.735 76.0595 886.318 69.0046L882.331 68.6754C881.762 75.5725 880.813 82.4114 879.289 90.217L883.215 90.983ZM886.319 68.9864C886.835 61.9592 887.092 54.9983 887.092 47.08H883.092C883.092 54.9057 882.838 61.7688 882.33 68.6936L886.319 68.9864ZM885.092 45.08H862.052V49.08H885.092V45.08ZM864.052 47.08V34.28H860.052V47.08H864.052ZM862.052 36.28H899.812V32.28H862.052V36.28ZM897.812 34.28V45.8H901.812V34.28H897.812ZM897.812 45.8C897.812 53.768 897.621 60.9503 897.114 68.0575L901.103 68.3425C901.62 61.1137 901.812 53.832 901.812 45.8H897.812ZM897.115 68.0398C896.545 75.1337 895.595 82.2881 894.011 90.2078L897.934 90.9922C899.55 82.9119 900.52 75.6022 901.102 68.3602L897.115 68.0398ZM918.292 32.36V90.6H922.292V32.36H918.292ZM920.292 88.6H905.573V92.6H920.292V88.6ZM907.573 90.6V32.36H903.573V90.6H907.573ZM905.573 34.36H920.292V30.36H905.573V34.36Z" fill="url(#paint0_linear_707_33032)"/>
</g>
<path d="M47.28 76.072L70.32 73.32V86.12L32.56 90.6V34.28H47.28V76.072ZM88.24 53.16H93.36V67.24H88.24V90.6H73.52V32.36H88.24V53.16ZM101.68 34.28H139.44V65L101.68 68.2V34.28ZM101.68 70.76H116.4V80.36H157.36V92.52H101.68V70.76ZM157.36 46.12H162.48V59.56H157.36V73.32H142.64V32.36H157.36V46.12ZM115.44 46.44V54.888L125.68 54.056V46.44H115.44ZM229.04 32.36V90.6H214.32V32.36H229.04ZM169.52 77.8H211.12V90.6H169.52V77.8ZM196.72 51.88C196.72 47.208 194.608 44.52 190.32 44.52C186.032 44.52 183.92 47.208 183.92 51.88C183.92 56.552 186.032 59.24 190.32 59.24C194.608 59.24 196.72 56.552 196.72 51.88ZM210.48 51.88C210.48 63.976 203.44 71.4 190.32 71.4C177.2 71.4 170.16 63.976 170.16 51.88C170.16 39.784 177.2 32.36 190.32 32.36C203.44 32.36 210.48 39.784 210.48 51.88ZM320.577 50.28C320.577 61.672 311.873 68.2 292.417 68.2C272.961 68.2 264.257 61.672 264.257 50.28C264.257 38.952 272.961 32.36 292.417 32.36C311.873 32.36 320.577 38.888 320.577 50.28ZM262.977 70.76H321.857V83.56H312.577V92.52H297.857V83.56H286.977V92.52H272.257V83.56H262.977V70.76ZM306.497 50.28C306.497 46.12 303.553 44.52 292.417 44.52C281.281 44.52 278.337 46.12 278.337 50.28C278.337 54.44 281.281 56.04 292.417 56.04C303.553 56.04 306.497 54.44 306.497 50.28ZM346.818 76.072L369.858 73.32V86.12L332.098 90.6V34.28H346.818V76.072ZM390.338 32.36V90.6H375.618V32.36H390.338ZM444.738 66.92H438.978V86.12L401.218 90.6V34.28H415.298V50.28H424.898V34.28H438.978V53.48H444.738V32.36H459.458V90.6H444.738V66.92ZM415.298 62.44V76.776L424.898 75.624V62.44H415.298ZM499.841 49.96L487.425 71.4H469.825L492.737 33H509.697L502.273 45.8H514.241L529.729 71.4H511.873L499.841 49.96ZM470.337 77.8H529.217V90.6H470.337V77.8ZM596.435 90.6H581.715C583.059 83.688 583.955 77.544 584.531 71.4H563.155V58.6H585.363C585.491 54.952 585.555 51.112 585.555 47.08H562.515V34.28H600.275V45.8C600.275 53.8 600.083 61.032 599.571 68.2C598.995 75.368 598.035 82.6 596.435 90.6ZM618.195 53.16H623.315V67.24H618.195V90.6H603.475V32.36H618.195V53.16ZM648.275 58.6H688.595V71.4H633.555V33.64H688.595V46.44H648.275V58.6ZM631.635 77.8H690.515V90.6H631.635V77.8ZM723.813 34.28H761.573V65L723.813 68.2V34.28ZM723.813 70.76H738.533V80.36H779.493V92.52H723.813V70.76ZM779.493 46.12H784.613V59.56H779.493V73.32H764.773V32.36H779.493V46.12ZM737.573 46.44V54.888L747.813 54.056V46.44H737.573ZM810.852 83.752H849.893V91.88H794.852V74.664H833.892V73H794.852V64.872H849.893V82.152H810.852V83.752ZM794.852 33.64H849.893V41.448H809.572V44.136H849.893V51.944H794.852V33.64ZM792.932 53.864H851.812V62.952H792.932V53.864ZM895.972 90.6H881.252C882.788 82.728 883.748 75.816 884.324 68.84C884.836 61.864 885.092 54.952 885.092 47.08H862.052V34.28H899.812V45.8C899.812 53.8 899.62 61.032 899.108 68.2C898.532 75.368 897.572 82.6 895.972 90.6ZM920.292 32.36V90.6H905.572V32.36H920.292Z" fill="white" fill-opacity="0.1"/>
<path d="M47.28 76.072H45.28V78.3251L47.5172 78.0579L47.28 76.072ZM70.32 73.32H72.32V71.0669L70.0828 71.3341L70.32 73.32ZM70.32 86.12L70.5556 88.1061L72.32 87.8967V86.12H70.32ZM32.56 90.6H30.56V92.8513L32.7956 92.5861L32.56 90.6ZM32.56 34.28V32.28H30.56V34.28H32.56ZM47.28 34.28H49.28V32.28H47.28V34.28ZM88.24 53.16H86.24V55.16H88.24V53.16ZM93.36 53.16H95.36V51.16H93.36V53.16ZM93.36 67.24V69.24H95.36V67.24H93.36ZM88.24 67.24V65.24H86.24V67.24H88.24ZM88.24 90.6V92.6H90.24V90.6H88.24ZM73.52 90.6H71.52V92.6H73.52V90.6ZM73.52 32.36V30.36H71.52V32.36H73.52ZM88.24 32.36H90.24V30.36H88.24V32.36ZM47.5172 78.0579L70.5572 75.3059L70.0828 71.3341L47.0428 74.0861L47.5172 78.0579ZM68.32 73.32V86.12H72.32V73.32H68.32ZM70.0844 84.1339L32.3244 88.6139L32.7956 92.5861L70.5556 88.1061L70.0844 84.1339ZM34.56 90.6V34.28H30.56V90.6H34.56ZM32.56 36.28H47.28V32.28H32.56V36.28ZM45.28 34.28V76.072H49.28V34.28H45.28ZM88.24 55.16H93.36V51.16H88.24V55.16ZM91.36 53.16V67.24H95.36V53.16H91.36ZM93.36 65.24H88.24V69.24H93.36V65.24ZM86.24 67.24V90.6H90.24V67.24H86.24ZM88.24 88.6H73.52V92.6H88.24V88.6ZM75.52 90.6V32.36H71.52V90.6H75.52ZM73.52 34.36H88.24V30.36H73.52V34.36ZM86.24 32.36V53.16H90.24V32.36H86.24ZM101.68 34.28V32.28H99.68V34.28H101.68ZM139.44 34.28H141.44V32.28H139.44V34.28ZM139.44 65L139.609 66.9929L141.44 66.8377V65H139.44ZM101.68 68.2H99.68V70.3767L101.849 70.1929L101.68 68.2ZM101.68 70.76V68.76H99.68V70.76H101.68ZM116.4 70.76H118.4V68.76H116.4V70.76ZM116.4 80.36H114.4V82.36H116.4V80.36ZM157.36 80.36H159.36V78.36H157.36V80.36ZM157.36 92.52V94.52H159.36V92.52H157.36ZM101.68 92.52H99.68V94.52H101.68V92.52ZM157.36 46.12H155.36V48.12H157.36V46.12ZM162.48 46.12H164.48V44.12H162.48V46.12ZM162.48 59.56V61.56H164.48V59.56H162.48ZM157.36 59.56V57.56H155.36V59.56H157.36ZM157.36 73.32V75.32H159.36V73.32H157.36ZM142.64 73.32H140.64V75.32H142.64V73.32ZM142.64 32.36V30.36H140.64V32.36H142.64ZM157.36 32.36H159.36V30.36H157.36V32.36ZM115.44 46.44V44.44H113.44V46.44H115.44ZM115.44 54.888H113.44V57.0571L115.602 56.8814L115.44 54.888ZM125.68 54.056L125.842 56.0494L127.68 55.9001V54.056H125.68ZM125.68 46.44H127.68V44.44H125.68V46.44ZM101.68 36.28H139.44V32.28H101.68V36.28ZM137.44 34.28V65H141.44V34.28H137.44ZM139.271 63.0071L101.511 66.2071L101.849 70.1929L139.609 66.9929L139.271 63.0071ZM103.68 68.2V34.28H99.68V68.2H103.68ZM101.68 72.76H116.4V68.76H101.68V72.76ZM114.4 70.76V80.36H118.4V70.76H114.4ZM116.4 82.36H157.36V78.36H116.4V82.36ZM155.36 80.36V92.52H159.36V80.36H155.36ZM157.36 90.52H101.68V94.52H157.36V90.52ZM103.68 92.52V70.76H99.68V92.52H103.68ZM157.36 48.12H162.48V44.12H157.36V48.12ZM160.48 46.12V59.56H164.48V46.12H160.48ZM162.48 57.56H157.36V61.56H162.48V57.56ZM155.36 59.56V73.32H159.36V59.56H155.36ZM157.36 71.32H142.64V75.32H157.36V71.32ZM144.64 73.32V32.36H140.64V73.32H144.64ZM142.64 34.36H157.36V30.36H142.64V34.36ZM155.36 32.36V46.12H159.36V32.36H155.36ZM113.44 46.44V54.888H117.44V46.44H113.44ZM115.602 56.8814L125.842 56.0494L125.518 52.0626L115.278 52.8946L115.602 56.8814ZM127.68 54.056V46.44H123.68V54.056H127.68ZM125.68 44.44H115.44V48.44H125.68V44.44ZM229.04 32.36H231.04V30.36H229.04V32.36ZM229.04 90.6V92.6H231.04V90.6H229.04ZM214.32 90.6H212.32V92.6H214.32V90.6ZM214.32 32.36V30.36H212.32V32.36H214.32ZM169.52 77.8V75.8H167.52V77.8H169.52ZM211.12 77.8H213.12V75.8H211.12V77.8ZM211.12 90.6V92.6H213.12V90.6H211.12ZM169.52 90.6H167.52V92.6H169.52V90.6ZM227.04 32.36V90.6H231.04V32.36H227.04ZM229.04 88.6H214.32V92.6H229.04V88.6ZM216.32 90.6V32.36H212.32V90.6H216.32ZM214.32 34.36H229.04V30.36H214.32V34.36ZM169.52 79.8H211.12V75.8H169.52V79.8ZM209.12 77.8V90.6H213.12V77.8H209.12ZM211.12 88.6H169.52V92.6H211.12V88.6ZM171.52 90.6V77.8H167.52V90.6H171.52ZM198.72 51.88C198.72 49.2806 198.137 46.9056 196.654 45.1552C195.123 43.3476 192.902 42.52 190.32 42.52V46.52C192.026 46.52 193.005 47.0364 193.602 47.7408C194.247 48.5024 194.72 49.8074 194.72 51.88H198.72ZM190.32 42.52C187.738 42.52 185.517 43.3476 183.986 45.1552C182.503 46.9056 181.92 49.2806 181.92 51.88H185.92C185.92 49.8074 186.393 48.5024 187.038 47.7408C187.635 47.0364 188.614 46.52 190.32 46.52V42.52ZM181.92 51.88C181.92 54.4794 182.503 56.8544 183.986 58.6048C185.517 60.4124 187.738 61.24 190.32 61.24V57.24C188.614 57.24 187.635 56.7236 187.038 56.0192C186.393 55.2576 185.92 53.9526 185.92 51.88H181.92ZM190.32 61.24C192.902 61.24 195.123 60.4124 196.654 58.6048C198.137 56.8544 198.72 54.4794 198.72 51.88H194.72C194.72 53.9526 194.247 55.2576 193.602 56.0192C193.005 56.7236 192.026 57.24 190.32 57.24V61.24ZM208.48 51.88C208.48 57.5433 206.839 61.856 203.912 64.7551C200.984 67.6556 196.508 69.4 190.32 69.4V73.4C197.252 73.4 202.856 71.4324 206.728 67.5969C210.601 63.76 212.48 58.3127 212.48 51.88H208.48ZM190.32 69.4C184.132 69.4 179.656 67.6556 176.728 64.7551C173.801 61.856 172.16 57.5433 172.16 51.88H168.16C168.16 58.3127 170.039 63.76 173.912 67.5969C177.784 71.4324 183.388 73.4 190.32 73.4V69.4ZM172.16 51.88C172.16 46.2167 173.801 41.904 176.728 39.0049C179.656 36.1044 184.132 34.36 190.32 34.36V30.36C183.388 30.36 177.784 32.3276 173.912 36.1631C170.039 40 168.16 45.4473 168.16 51.88H172.16ZM190.32 34.36C196.508 34.36 200.984 36.1044 203.912 39.0049C206.839 41.904 208.48 46.2167 208.48 51.88H212.48C212.48 45.4473 210.601 40 206.728 36.1631C202.856 32.3276 197.252 30.36 190.32 30.36V34.36ZM262.977 70.76V68.76H260.977V70.76H262.977ZM321.857 70.76H323.857V68.76H321.857V70.76ZM321.857 83.56V85.56H323.857V83.56H321.857ZM312.578 83.56V81.56H310.578V83.56H312.578ZM312.578 92.52V94.52H314.578V92.52H312.578ZM297.857 92.52H295.857V94.52H297.857V92.52ZM297.857 83.56H299.857V81.56H297.857V83.56ZM286.978 83.56V81.56H284.977V83.56H286.978ZM286.978 92.52V94.52H288.978V92.52H286.978ZM272.257 92.52H270.257V94.52H272.257V92.52ZM272.257 83.56H274.257V81.56H272.257V83.56ZM262.977 83.56H260.977V85.56H262.977V83.56ZM318.578 50.28C318.578 55.3807 316.678 59.1994 312.688 61.8452C308.558 64.5841 301.983 66.2 292.417 66.2V70.2C302.308 70.2 309.813 68.5519 314.899 65.1788C320.125 61.7126 322.578 56.5713 322.578 50.28H318.578ZM292.417 66.2C282.852 66.2 276.277 64.5841 272.147 61.8452C268.157 59.1994 266.257 55.3807 266.257 50.28H262.257C262.257 56.5713 264.71 61.7126 269.936 65.1788C275.022 68.5519 282.527 70.2 292.417 70.2V66.2ZM266.257 50.28C266.257 45.2141 268.155 41.3928 272.149 38.7374C276.28 35.9908 282.855 34.36 292.417 34.36V30.36C282.524 30.36 275.019 32.0252 269.934 35.4066C264.712 38.8792 262.257 44.0179 262.257 50.28H266.257ZM292.417 34.36C301.983 34.36 308.558 35.9759 312.688 38.7148C316.678 41.3606 318.578 45.1793 318.578 50.28H322.578C322.578 43.9887 320.125 38.8474 314.899 35.3812C309.813 32.0081 302.308 30.36 292.417 30.36V34.36ZM262.977 72.76H321.857V68.76H262.977V72.76ZM319.857 70.76V83.56H323.857V70.76H319.857ZM321.857 81.56H312.578V85.56H321.857V81.56ZM310.578 83.56V92.52H314.578V83.56H310.578ZM312.578 90.52H297.857V94.52H312.578V90.52ZM299.857 92.52V83.56H295.857V92.52H299.857ZM297.857 81.56H286.978V85.56H297.857V81.56ZM284.977 83.56V92.52H288.978V83.56H284.977ZM286.978 90.52H272.257V94.52H286.978V90.52ZM274.257 92.52V83.56H270.257V92.52H274.257ZM272.257 81.56H262.977V85.56H272.257V81.56ZM264.977 83.56V70.76H260.977V83.56H264.977ZM308.497 50.28C308.497 49.0134 308.274 47.7323 307.569 46.5807C306.854 45.4127 305.771 44.5852 304.427 44.0042C301.876 42.9012 297.969 42.52 292.417 42.52V46.52C298.002 46.52 301.135 46.9388 302.84 47.6758C303.624 48.0148 303.973 48.3673 304.158 48.6693C304.353 48.9876 304.497 49.4666 304.497 50.28H308.497ZM292.417 42.52C286.866 42.52 282.959 42.9012 280.408 44.0042C279.064 44.5852 277.981 45.4127 277.266 46.5807C276.561 47.7323 276.337 49.0134 276.337 50.28H280.337C280.337 49.4666 280.482 48.9876 280.677 48.6693C280.862 48.3673 281.211 48.0148 281.995 47.6758C283.7 46.9388 286.833 46.52 292.417 46.52V42.52ZM276.337 50.28C276.337 51.5466 276.561 52.8276 277.266 53.9793C277.981 55.1473 279.064 55.9748 280.408 56.5558C282.959 57.6588 286.866 58.04 292.417 58.04V54.04C286.833 54.04 283.7 53.6212 281.995 52.8842C281.211 52.5452 280.862 52.1927 280.677 51.8907C280.482 51.5723 280.337 51.0934 280.337 50.28H276.337ZM292.417 58.04C297.969 58.04 301.876 57.6588 304.427 56.5558C305.771 55.9748 306.854 55.1473 307.569 53.9793C308.274 52.8276 308.497 51.5466 308.497 50.28H304.497C304.497 51.0934 304.353 51.5723 304.158 51.8907C303.973 52.1927 303.624 52.5452 302.84 52.8842C301.135 53.6212 298.002 54.04 292.417 54.04V58.04ZM346.818 76.072H344.818V78.3251L347.055 78.0579L346.818 76.072ZM369.858 73.32H371.858V71.0669L369.62 71.3341L369.858 73.32ZM369.858 86.12L370.093 88.1061L371.858 87.8967V86.12H369.858ZM332.098 90.6H330.098V92.8513L332.333 92.5861L332.098 90.6ZM332.098 34.28V32.28H330.098V34.28H332.098ZM346.818 34.28H348.818V32.28H346.818V34.28ZM390.338 32.36H392.338V30.36H390.338V32.36ZM390.338 90.6V92.6H392.338V90.6H390.338ZM375.617 90.6H373.617V92.6H375.617V90.6ZM375.617 32.36V30.36H373.617V32.36H375.617ZM347.055 78.0579L370.095 75.3059L369.62 71.3341L346.58 74.0861L347.055 78.0579ZM367.858 73.32V86.12H371.858V73.32H367.858ZM369.622 84.1339L331.862 88.6139L332.333 92.5861L370.093 88.1061L369.622 84.1339ZM334.098 90.6V34.28H330.098V90.6H334.098ZM332.098 36.28H346.818V32.28H332.098V36.28ZM344.818 34.28V76.072H348.818V34.28H344.818ZM388.338 32.36V90.6H392.338V32.36H388.338ZM390.338 88.6H375.617V92.6H390.338V88.6ZM377.617 90.6V32.36H373.617V90.6H377.617ZM375.617 34.36H390.338V30.36H375.617V34.36ZM444.737 66.92H446.737V64.92H444.737V66.92ZM438.978 66.92V64.92H436.978V66.92H438.978ZM438.978 86.12L439.213 88.1061L440.978 87.8967V86.12H438.978ZM401.217 90.6H399.217V92.8513L401.453 92.5861L401.217 90.6ZM401.217 34.28V32.28H399.217V34.28H401.217ZM415.298 34.28H417.298V32.28H415.298V34.28ZM415.298 50.28H413.298V52.28H415.298V50.28ZM424.897 50.28V52.28H426.897V50.28H424.897ZM424.897 34.28V32.28H422.897V34.28H424.897ZM438.978 34.28H440.978V32.28H438.978V34.28ZM438.978 53.48H436.978V55.48H438.978V53.48ZM444.737 53.48V55.48H446.737V53.48H444.737ZM444.737 32.36V30.36H442.737V32.36H444.737ZM459.458 32.36H461.458V30.36H459.458V32.36ZM459.458 90.6V92.6H461.458V90.6H459.458ZM444.737 90.6H442.737V92.6H444.737V90.6ZM415.298 62.44V60.44H413.298V62.44H415.298ZM415.298 76.776H413.298V79.0303L415.536 78.7618L415.298 76.776ZM424.897 75.624L425.136 77.6098L426.897 77.3983V75.624H424.897ZM424.897 62.44H426.897V60.44H424.897V62.44ZM444.737 64.92H438.978V68.92H444.737V64.92ZM436.978 66.92V86.12H440.978V66.92H436.978ZM438.742 84.1339L400.982 88.6139L401.453 92.5861L439.213 88.1061L438.742 84.1339ZM403.217 90.6V34.28H399.217V90.6H403.217ZM401.217 36.28H415.298V32.28H401.217V36.28ZM413.298 34.28V50.28H417.298V34.28H413.298ZM415.298 52.28H424.897V48.28H415.298V52.28ZM426.897 50.28V34.28H422.897V50.28H426.897ZM424.897 36.28H438.978V32.28H424.897V36.28ZM436.978 34.28V53.48H440.978V34.28H436.978ZM438.978 55.48H444.737V51.48H438.978V55.48ZM446.737 53.48V32.36H442.737V53.48H446.737ZM444.737 34.36H459.458V30.36H444.737V34.36ZM457.458 32.36V90.6H461.458V32.36H457.458ZM459.458 88.6H444.737V92.6H459.458V88.6ZM446.737 90.6V66.92H442.737V90.6H446.737ZM413.298 62.44V76.776H417.298V62.44H413.298ZM415.536 78.7618L425.136 77.6098L424.659 73.6382L415.059 74.7902L415.536 78.7618ZM426.897 75.624V62.44H422.897V75.624H426.897ZM424.897 60.44H415.298V64.44H424.897V60.44ZM499.841 49.96L501.586 48.9812L499.869 45.922L498.111 48.9577L499.841 49.96ZM487.426 71.4V73.4H488.578L489.156 72.4023L487.426 71.4ZM469.826 71.4L468.108 70.3752L466.303 73.4H469.826V71.4ZM492.737 33V31H491.602L491.02 31.9752L492.737 33ZM509.698 33L511.428 34.0034L513.17 31H509.698V33ZM502.273 45.8L500.543 44.7966L498.801 47.8H502.273V45.8ZM514.241 45.8L515.953 44.7647L515.369 43.8H514.241V45.8ZM529.729 71.4V73.4H533.277L531.441 70.3647L529.729 71.4ZM511.874 71.4L510.129 72.3788L510.702 73.4H511.874V71.4ZM470.337 77.8V75.8H468.337V77.8H470.337ZM529.217 77.8H531.217V75.8H529.217V77.8ZM529.217 90.6V92.6H531.217V90.6H529.217ZM470.337 90.6H468.337V92.6H470.337V90.6ZM498.111 48.9577L485.695 70.3977L489.156 72.4023L501.572 50.9623L498.111 48.9577ZM487.426 69.4H469.826V73.4H487.426V69.4ZM471.543 72.4248L494.455 34.0248L491.02 31.9752L468.108 70.3752L471.543 72.4248ZM492.737 35H509.698V31H492.737V35ZM507.967 31.9966L500.543 44.7966L504.004 46.8034L511.428 34.0034L507.967 31.9966ZM502.273 47.8H514.241V43.8H502.273V47.8ZM512.53 46.8353L528.018 72.4353L531.441 70.3647L515.953 44.7647L512.53 46.8353ZM529.729 69.4H511.874V73.4H529.729V69.4ZM513.618 70.4212L501.586 48.9812L498.097 50.9388L510.129 72.3788L513.618 70.4212ZM470.337 79.8H529.217V75.8H470.337V79.8ZM527.217 77.8V90.6H531.217V77.8H527.217ZM529.217 88.6H470.337V92.6H529.217V88.6ZM472.337 90.6V77.8H468.337V90.6H472.337ZM596.435 90.6V92.6H598.075L598.396 90.9922L596.435 90.6ZM581.715 90.6L579.752 90.2183L579.289 92.6H581.715V90.6ZM584.531 71.4L586.522 71.5867L586.727 69.4H584.531V71.4ZM563.155 71.4H561.155V73.4H563.155V71.4ZM563.155 58.6V56.6H561.155V58.6H563.155ZM585.363 58.6V60.6H587.294L587.362 58.6701L585.363 58.6ZM585.555 47.08H587.555V45.08H585.555V47.08ZM562.515 47.08H560.515V49.08H562.515V47.08ZM562.515 34.28V32.28H560.515V34.28H562.515ZM600.275 34.28H602.275V32.28H600.275V34.28ZM599.571 68.2L601.565 68.3602L601.565 68.3513L601.566 68.3425L599.571 68.2ZM618.195 53.16H616.195V55.16H618.195V53.16ZM623.315 53.16H625.315V51.16H623.315V53.16ZM623.315 67.24V69.24H625.315V67.24H623.315ZM618.195 67.24V65.24H616.195V67.24H618.195ZM618.195 90.6V92.6H620.195V90.6H618.195ZM603.475 90.6H601.475V92.6H603.475V90.6ZM603.475 32.36V30.36H601.475V32.36H603.475ZM618.195 32.36H620.195V30.36H618.195V32.36ZM596.435 88.6H581.715V92.6H596.435V88.6ZM583.678 90.9817C585.033 84.0124 585.94 77.803 586.522 71.5867L582.54 71.2133C581.971 77.285 581.085 83.3636 579.752 90.2183L583.678 90.9817ZM584.531 69.4H563.155V73.4H584.531V69.4ZM565.155 71.4V58.6H561.155V71.4H565.155ZM563.155 60.6H585.363V56.6H563.155V60.6ZM587.362 58.6701C587.491 54.9965 587.555 51.133 587.555 47.08H583.555C583.555 51.091 583.491 54.9075 583.364 58.5299L587.362 58.6701ZM585.555 45.08H562.515V49.08H585.555V45.08ZM564.515 47.08V34.28H560.515V47.08H564.515ZM562.515 36.28H600.275V32.28H562.515V36.28ZM598.275 34.28V45.8H602.275V34.28H598.275ZM598.275 45.8C598.275 53.768 598.084 60.9503 597.576 68.0575L601.566 68.3425C602.082 61.1137 602.275 53.832 602.275 45.8H598.275ZM597.577 68.0398C597.007 75.1337 596.058 82.2881 594.474 90.2078L598.396 90.9922C600.012 82.9119 600.983 75.6022 601.565 68.3602L597.577 68.0398ZM618.195 55.16H623.315V51.16H618.195V55.16ZM621.315 53.16V67.24H625.315V53.16H621.315ZM623.315 65.24H618.195V69.24H623.315V65.24ZM616.195 67.24V90.6H620.195V67.24H616.195ZM618.195 88.6H603.475V92.6H618.195V88.6ZM605.475 90.6V32.36H601.475V90.6H605.475ZM603.475 34.36H618.195V30.36H603.475V34.36ZM616.195 32.36V53.16H620.195V32.36H616.195ZM648.275 58.6H646.275V60.6H648.275V58.6ZM688.595 58.6H690.595V56.6H688.595V58.6ZM688.595 71.4V73.4H690.595V71.4H688.595ZM633.555 71.4H631.555V73.4H633.555V71.4ZM633.555 33.64V31.64H631.555V33.64H633.555ZM688.595 33.64H690.595V31.64H688.595V33.64ZM688.595 46.44V48.44H690.595V46.44H688.595ZM648.275 46.44V44.44H646.275V46.44H648.275ZM631.635 77.8V75.8H629.635V77.8H631.635ZM690.515 77.8H692.515V75.8H690.515V77.8ZM690.515 90.6V92.6H692.515V90.6H690.515ZM631.635 90.6H629.635V92.6H631.635V90.6ZM648.275 60.6H688.595V56.6H648.275V60.6ZM686.595 58.6V71.4H690.595V58.6H686.595ZM688.595 69.4H633.555V73.4H688.595V69.4ZM635.555 71.4V33.64H631.555V71.4H635.555ZM633.555 35.64H688.595V31.64H633.555V35.64ZM686.595 33.64V46.44H690.595V33.64H686.595ZM688.595 44.44H648.275V48.44H688.595V44.44ZM646.275 46.44V58.6H650.275V46.44H646.275ZM631.635 79.8H690.515V75.8H631.635V79.8ZM688.515 77.8V90.6H692.515V77.8H688.515ZM690.515 88.6H631.635V92.6H690.515V88.6ZM633.635 90.6V77.8H629.635V90.6H633.635ZM723.812 34.28V32.28H721.812V34.28H723.812ZM761.573 34.28H763.573V32.28H761.573V34.28ZM761.573 65L761.741 66.9929L763.573 66.8377V65H761.573ZM723.812 68.2H721.812V70.3767L723.981 70.1929L723.812 68.2ZM723.812 70.76V68.76H721.812V70.76H723.812ZM738.533 70.76H740.533V68.76H738.533V70.76ZM738.533 80.36H736.533V82.36H738.533V80.36ZM779.492 80.36H781.492V78.36H779.492V80.36ZM779.492 92.52V94.52H781.492V92.52H779.492ZM723.812 92.52H721.812V94.52H723.812V92.52ZM779.492 46.12H777.492V48.12H779.492V46.12ZM784.612 46.12H786.612V44.12H784.612V46.12ZM784.612 59.56V61.56H786.612V59.56H784.612ZM779.492 59.56V57.56H777.492V59.56H779.492ZM779.492 73.32V75.32H781.492V73.32H779.492ZM764.773 73.32H762.773V75.32H764.773V73.32ZM764.773 32.36V30.36H762.773V32.36H764.773ZM779.492 32.36H781.492V30.36H779.492V32.36ZM737.573 46.44V44.44H735.573V46.44H737.573ZM737.573 54.888H735.573V57.0571L737.734 56.8814L737.573 54.888ZM747.812 54.056L747.974 56.0494L749.812 55.9001V54.056H747.812ZM747.812 46.44H749.812V44.44H747.812V46.44ZM723.812 36.28H761.573V32.28H723.812V36.28ZM759.573 34.28V65H763.573V34.28H759.573ZM761.404 63.0071L723.644 66.2071L723.981 70.1929L761.741 66.9929L761.404 63.0071ZM725.812 68.2V34.28H721.812V68.2H725.812ZM723.812 72.76H738.533V68.76H723.812V72.76ZM736.533 70.76V80.36H740.533V70.76H736.533ZM738.533 82.36H779.492V78.36H738.533V82.36ZM777.492 80.36V92.52H781.492V80.36H777.492ZM779.492 90.52H723.812V94.52H779.492V90.52ZM725.812 92.52V70.76H721.812V92.52H725.812ZM779.492 48.12H784.612V44.12H779.492V48.12ZM782.612 46.12V59.56H786.612V46.12H782.612ZM784.612 57.56H779.492V61.56H784.612V57.56ZM777.492 59.56V73.32H781.492V59.56H777.492ZM779.492 71.32H764.773V75.32H779.492V71.32ZM766.773 73.32V32.36H762.773V73.32H766.773ZM764.773 34.36H779.492V30.36H764.773V34.36ZM777.492 32.36V46.12H781.492V32.36H777.492ZM735.573 46.44V54.888H739.573V46.44H735.573ZM737.734 56.8814L747.974 56.0494L747.651 52.0626L737.411 52.8946L737.734 56.8814ZM749.812 54.056V46.44H745.812V54.056H749.812ZM747.812 44.44H737.573V48.44H747.812V44.44ZM810.852 83.752H808.852V85.752H810.852V83.752ZM849.893 83.752H851.893V81.752H849.893V83.752ZM849.893 91.88V93.88H851.893V91.88H849.893ZM794.852 91.88H792.852V93.88H794.852V91.88ZM794.852 74.664V72.664H792.852V74.664H794.852ZM833.893 74.664V76.664H835.893V74.664H833.893ZM833.893 73H835.893V71H833.893V73ZM794.852 73H792.852V75H794.852V73ZM794.852 64.872V62.872H792.852V64.872H794.852ZM849.893 64.872H851.893V62.872H849.893V64.872ZM849.893 82.152V84.152H851.893V82.152H849.893ZM810.852 82.152V80.152H808.852V82.152H810.852ZM794.852 33.64V31.64H792.852V33.64H794.852ZM849.893 33.64H851.893V31.64H849.893V33.64ZM849.893 41.448V43.448H851.893V41.448H849.893ZM809.573 41.448V39.448H807.573V41.448H809.573ZM809.573 44.136H807.573V46.136H809.573V44.136ZM849.893 44.136H851.893V42.136H849.893V44.136ZM849.893 51.944V53.944H851.893V51.944H849.893ZM794.852 51.944H792.852V53.944H794.852V51.944ZM792.932 53.864V51.864H790.932V53.864H792.932ZM851.812 53.864H853.812V51.864H851.812V53.864ZM851.812 62.952V64.952H853.812V62.952H851.812ZM792.932 62.952H790.932V64.952H792.932V62.952ZM810.852 85.752H849.893V81.752H810.852V85.752ZM847.893 83.752V91.88H851.893V83.752H847.893ZM849.893 89.88H794.852V93.88H849.893V89.88ZM796.852 91.88V74.664H792.852V91.88H796.852ZM794.852 76.664H833.893V72.664H794.852V76.664ZM835.893 74.664V73H831.893V74.664H835.893ZM833.893 71H794.852V75H833.893V71ZM796.852 73V64.872H792.852V73H796.852ZM794.852 66.872H849.893V62.872H794.852V66.872ZM847.893 64.872V82.152H851.893V64.872H847.893ZM849.893 80.152H810.852V84.152H849.893V80.152ZM808.852 82.152V83.752H812.852V82.152H808.852ZM794.852 35.64H849.893V31.64H794.852V35.64ZM847.893 33.64V41.448H851.893V33.64H847.893ZM849.893 39.448H809.573V43.448H849.893V39.448ZM807.573 41.448V44.136H811.573V41.448H807.573ZM809.573 46.136H849.893V42.136H809.573V46.136ZM847.893 44.136V51.944H851.893V44.136H847.893ZM849.893 49.944H794.852V53.944H849.893V49.944ZM796.852 51.944V33.64H792.852V51.944H796.852ZM792.932 55.864H851.812V51.864H792.932V55.864ZM849.812 53.864V62.952H853.812V53.864H849.812ZM851.812 60.952H792.932V64.952H851.812V60.952ZM794.932 62.952V53.864H790.932V62.952H794.932ZM895.972 90.6V92.6H897.612L897.934 90.9922L895.972 90.6ZM881.253 90.6L879.289 90.217L878.825 92.6H881.253V90.6ZM884.324 68.84L886.318 69.0046L886.318 68.9955L886.319 68.9864L884.324 68.84ZM885.092 47.08H887.092V45.08H885.092V47.08ZM862.052 47.08H860.052V49.08H862.052V47.08ZM862.052 34.28V32.28H860.052V34.28H862.052ZM899.812 34.28H901.812V32.28H899.812V34.28ZM899.109 68.2L901.102 68.3602L901.103 68.3513L901.103 68.3425L899.109 68.2ZM920.292 32.36H922.292V30.36H920.292V32.36ZM920.292 90.6V92.6H922.292V90.6H920.292ZM905.573 90.6H903.573V92.6H905.573V90.6ZM905.573 32.36V30.36H903.573V32.36H905.573ZM895.972 88.6H881.253V92.6H895.972V88.6ZM883.215 90.983C884.764 83.0446 885.735 76.0595 886.318 69.0046L882.331 68.6754C881.762 75.5725 880.813 82.4114 879.289 90.217L883.215 90.983ZM886.319 68.9864C886.835 61.9592 887.092 54.9983 887.092 47.08H883.092C883.092 54.9057 882.838 61.7688 882.33 68.6936L886.319 68.9864ZM885.092 45.08H862.052V49.08H885.092V45.08ZM864.052 47.08V34.28H860.052V47.08H864.052ZM862.052 36.28H899.812V32.28H862.052V36.28ZM897.812 34.28V45.8H901.812V34.28H897.812ZM897.812 45.8C897.812 53.768 897.621 60.9503 897.114 68.0575L901.103 68.3425C901.62 61.1137 901.812 53.832 901.812 45.8H897.812ZM897.115 68.0398C896.545 75.1337 895.595 82.2881 894.011 90.2078L897.934 90.9922C899.55 82.9119 900.52 75.6022 901.102 68.3602L897.115 68.0398ZM918.292 32.36V90.6H922.292V32.36H918.292ZM920.292 88.6H905.573V92.6H920.292V88.6ZM907.573 90.6V32.36H903.573V90.6H907.573ZM905.573 34.36H920.292V30.36H905.573V34.36Z" fill="url(#paint1_linear_707_33032)"/>
<defs>
<filter id="filter0_f_707_33032" x="0.560059" y="0.359375" width="951.732" height="124.16" filterUnits="userSpaceOnUse" color-interpolation-filters="sRGB">
<feFlood flood-opacity="0" result="BackgroundImageFix"/>
<feBlend mode="normal" in="SourceGraphic" in2="BackgroundImageFix" result="shape"/>
<feGaussianBlur stdDeviation="16" result="effect1_foregroundBlur_707_33032"/>
</filter>
<linearGradient id="paint0_linear_707_33032" x1="14.4534" y1="38.0759" x2="732.95" y2="439.137" gradientUnits="userSpaceOnUse">
<stop stop-color="#8C8AFF"/>
<stop offset="0.5625" stop-color="#A98AFF"/>
<stop offset="1" stop-color="#DB74FF"/>
</linearGradient>
<linearGradient id="paint1_linear_707_33032" x1="14.4534" y1="38.0759" x2="732.95" y2="439.137" gradientUnits="userSpaceOnUse">
<stop stop-color="#8C8AFF"/>
<stop offset="0.5625" stop-color="#A98AFF"/>
<stop offset="1" stop-color="#DB74FF"/>
</linearGradient>
</defs>
</svg>
